<svg xmlns="http://www.w3.org/2000/svg" viewBox="0 0 71 71"><defs><style>.cls-1{fill:#fe5076;}.cls-2{fill:#fff;}</style></defs><g id="Capa_2" data-name="Capa 2"><g id="Capa_2-2" data-name="Capa 2"><circle class="cls-1" cx="35.5" cy="35.5" r="35.5"/><path class="cls-2" d="M38.21,15.54v14.8a2.54,2.54,0,0,0,2.54,2.54h14a2.53,2.53,0,0,1,2.53,2.54h0A2.53,2.53,0,0,1,54.79,38h-14a2.54,2.54,0,0,0-2.54,2.54v15A2.54,2.54,0,0,1,35.67,58h-.34a2.54,2.54,0,0,1-2.53-2.54v-15A2.54,2.54,0,0,0,30.26,38h-14a2.53,2.53,0,0,1-2.53-2.53h0a2.53,2.53,0,0,1,2.53-2.54H30.26a2.54,2.54,0,0,0,2.54-2.54V15.54A2.54,2.54,0,0,1,35.33,13h.34A2.54,2.54,0,0,1,38.21,15.54Z"/></g></g></svg>