<svg xmlns="http://www.w3.org/2000/svg" viewBox="0 0 190.64 56"><defs><style>.cls-1{fill:#01c4b7;}.cls-2{fill:#fff;}</style></defs><g id="Capa_2" data-name="Capa 2"><g id="Capa_3" data-name="Capa 3"><rect class="cls-1" width="190.64" height="56" rx="28"/><path class="cls-2" d="M70.41,27.78l-8.48-9.29V24h-1.8A10.12,10.12,0,0,0,50,34.15v2.93l.8-.87a14.36,14.36,0,0,1,10.6-4.68h.51v5.54Z"/><path class="cls-2" d="M76.89,33.9,78.34,33q1.55,2.82,3.55,2.82a3.34,3.34,0,0,0,1.61-.4,2.89,2.89,0,0,0,1.16-1.08,2.77,2.77,0,0,0,.39-1.43,2.87,2.87,0,0,0-.58-1.68,14,14,0,0,0-2.93-2.74,14.93,14.93,0,0,1-2.66-2.34A4.26,4.26,0,0,1,78,23.56a3.93,3.93,0,0,1,.54-2A3.81,3.81,0,0,1,80,20.08a4.38,4.38,0,0,1,2.11-.53,4.47,4.47,0,0,1,2.26.6,7.91,7.91,0,0,1,2.23,2.21l-1.4,1.05a6.67,6.67,0,0,0-1.64-1.68,2.87,2.87,0,0,0-1.48-.41,2.37,2.37,0,0,0-1.7.63,2.07,2.07,0,0,0-.65,1.54A2.73,2.73,0,0,0,80,24.58a4.21,4.21,0,0,0,.85,1.13c.22.22,1,.79,2.21,1.71a12.57,12.57,0,0,1,3,2.92,4.71,4.71,0,0,1,.83,2.57,4.35,4.35,0,0,1-1.41,3.23,4.75,4.75,0,0,1-3.44,1.37,5,5,0,0,1-2.82-.83A7.5,7.5,0,0,1,76.89,33.9Z"/><path class="cls-2" d="M90.25,19.55h1.62V26.7a6.9,6.9,0,0,1,2.18-1.94,5.28,5.28,0,0,1,2.57-.65,4.47,4.47,0,0,1,2.51.72,4.26,4.26,0,0,1,1.62,1.94,10.19,10.19,0,0,1,.53,3.8v6.51H99.65v-6a16.15,16.15,0,0,0-.17-2.92,3.41,3.41,0,0,0-1.1-1.89,3.27,3.27,0,0,0-2.09-.63,4,4,0,0,0-2.64,1A4.5,4.5,0,0,0,92.11,29a16.22,16.22,0,0,0-.24,3.44v4.64H90.25Z"/><path class="cls-2" d="M117.36,24.44V37.08h-1.6V34.91a7,7,0,0,1-2.3,1.87,6.39,6.39,0,0,1-7.36-1.32,6.53,6.53,0,0,1-1.91-4.74,6.41,6.41,0,0,1,1.92-4.67,6.28,6.28,0,0,1,4.62-1.94,6,6,0,0,1,2.82.66,6.48,6.48,0,0,1,2.21,2V24.44Zm-6.5,1.24a4.89,4.89,0,0,0-2.51.67,5,5,0,0,0-1.83,1.87,5.18,5.18,0,0,0-.67,2.56,5.08,5.08,0,0,0,.68,2.55,5,5,0,0,0,1.84,1.9,4.85,4.85,0,0,0,2.48.68,5.18,5.18,0,0,0,2.53-.67,4.69,4.69,0,0,0,1.84-1.83,5.18,5.18,0,0,0,.64-2.59,5.06,5.06,0,0,0-1.44-3.67A4.79,4.79,0,0,0,110.86,25.68Z"/><path class="cls-2" d="M120.41,24.44h1.66v1.84a6,6,0,0,1,1.57-1.63,3.09,3.09,0,0,1,1.72-.54,2.92,2.92,0,0,1,1.44.43L126,25.91a2,2,0,0,0-2.43.45,4.35,4.35,0,0,0-1.15,2.07,20.16,20.16,0,0,0-.3,4.38v4.27h-1.66Z"/><path class="cls-2" d="M138.83,32.89l1.38.72a7.64,7.64,0,0,1-1.56,2.14,6.24,6.24,0,0,1-2,1.23,6.79,6.79,0,0,1-2.5.43,6,6,0,0,1-4.84-2,6.81,6.81,0,0,1-1.75-4.59,6.71,6.71,0,0,1,1.48-4.28,6,6,0,0,1,5-2.4,6.26,6.26,0,0,1,5.17,2.45,6.87,6.87,0,0,1,1.39,4.33H129.24a5.13,5.13,0,0,0,1.41,3.61A4.5,4.5,0,0,0,134,35.91a5.2,5.2,0,0,0,1.87-.34,4.93,4.93,0,0,0,1.56-.89A7.41,7.41,0,0,0,138.83,32.89Zm0-3.41a5.21,5.21,0,0,0-1-2.08,4.47,4.47,0,0,0-1.64-1.26,5.14,5.14,0,0,0-2.15-.47,4.65,4.65,0,0,0-3.21,1.2,5.38,5.38,0,0,0-1.47,2.61Z"/></g></g></svg>