<svg xmlns="http://www.w3.org/2000/svg" viewBox="0 0 376 56.78"><defs><style>.cls-1{fill:#fff;}</style></defs><g id="Capa_2" data-name="Capa 2"><g id="Capa_3" data-name="Capa 3"><path class="cls-1" d="M55.83,54.89H50.15V23.66a1,1,0,0,0-.94-.95H36V1A.94.94,0,0,0,35,0H10.41a1,1,0,0,0-.95,1V54.89H1a.95.95,0,1,0,0,1.89H55.83a.95.95,0,1,0,0-1.89Zm-36,0H16.09V46.37a1,1,0,0,1,.94-.95h1.9a1,1,0,0,1,.94.95Zm3.79-31.23V54.89H21.77V46.37a2.84,2.84,0,0,0-2.84-2.84H17a2.84,2.84,0,0,0-2.84,2.84v8.52H11.36v-53H34.07V22.71H24.6A1,1,0,0,0,23.66,23.66Zm24.6,31.23H25.55V24.6H48.26Z"/><path class="cls-1" d="M30.28,13.25H24.6a.94.94,0,0,0-.94.94v5.68a.94.94,0,0,0,.94.95h5.68a1,1,0,0,0,.95-.95V14.19A1,1,0,0,0,30.28,13.25Zm-.94,5.68H25.55V15.14h3.79Z"/><path class="cls-1" d="M30.28,3.79H24.6a.94.94,0,0,0-.94.94v5.68a1,1,0,0,0,.94.95h5.68a1,1,0,0,0,.95-.95V4.73A1,1,0,0,0,30.28,3.79Zm-.94,5.67H25.55V5.68h3.79Z"/><path class="cls-1" d="M20.82,13.25H15.14a1,1,0,0,0-1,.94v5.68a1,1,0,0,0,1,.95h5.68a1,1,0,0,0,.95-.95V14.19A1,1,0,0,0,20.82,13.25Zm-.95,5.68H16.09V15.14h3.78Z"/><path class="cls-1" d="M20.82,3.79H15.14a1,1,0,0,0-1,.94v5.68a1,1,0,0,0,1,.95h5.68a1,1,0,0,0,.95-.95V4.73A1,1,0,0,0,20.82,3.79Zm-.95,5.67H16.09V5.68h3.78Z"/><path class="cls-1" d="M20.82,22.71H15.14a1,1,0,0,0-1,.95v5.68a1,1,0,0,0,1,.94h5.68a1,1,0,0,0,.95-.94V23.66A1,1,0,0,0,20.82,22.71Zm-.95,5.68H16.09V24.6h3.78Z"/><path class="cls-1" d="M20.82,32.17H15.14a1,1,0,0,0-1,.95V38.8a1,1,0,0,0,1,1h5.68a1,1,0,0,0,.95-1V33.12A1,1,0,0,0,20.82,32.17Zm-.95,5.68H16.09V34.07h3.78Z"/><path class="cls-1" d="M38.8,43.53h5.68a.94.94,0,0,0,.94-1V36.91a.94.94,0,0,0-.94-.95H38.8a1,1,0,0,0-.95.95v5.67A1,1,0,0,0,38.8,43.53Zm1-5.68h3.78v3.79H39.75Z"/><path class="cls-1" d="M38.8,34.07h5.68a1,1,0,0,0,.94-1V27.44a.94.94,0,0,0-.94-.94H38.8a1,1,0,0,0-.95.94v5.68A1,1,0,0,0,38.8,34.07Zm1-5.68h3.78v3.78H39.75Z"/><path class="cls-1" d="M38.8,53h5.68a.94.94,0,0,0,.94-.94V46.37a1,1,0,0,0-.94-.95H38.8a1,1,0,0,0-.95.95v5.68A1,1,0,0,0,38.8,53Zm1-5.67h3.78V51.1H39.75Z"/><path class="cls-1" d="M29.34,43.53H35a.94.94,0,0,0,1-1V36.91A.94.94,0,0,0,35,36H29.34a.94.94,0,0,0-.95.95v5.67A.94.94,0,0,0,29.34,43.53Zm.94-5.68h3.79v3.79H30.28Z"/><path class="cls-1" d="M29.34,34.07H35a1,1,0,0,0,1-1V27.44a.94.94,0,0,0-1-.94H29.34a.94.94,0,0,0-.95.94v5.68A1,1,0,0,0,29.34,34.07Zm.94-5.68h3.79v3.78H30.28Z"/><path class="cls-1" d="M29.34,53H35a.94.94,0,0,0,1-.94V46.37a1,1,0,0,0-1-.95H29.34a1,1,0,0,0-.95.95v5.68A.94.94,0,0,0,29.34,53Zm.94-5.67h3.79V51.1H30.28Z"/><path class="cls-1" d="M63.41,42.57h1.32V55.83H63.41Z"/><path class="cls-1" d="M67.57,46h1.26v1.76a5.12,5.12,0,0,1,1.67-1.51,4.08,4.08,0,0,1,2-.5,3.5,3.5,0,0,1,1.95.55,3.37,3.37,0,0,1,1.26,1.51,8,8,0,0,1,.4,3v5H74.86V51.15a11.74,11.74,0,0,0-.14-2.26,2.29,2.29,0,0,0-2.47-2,3.1,3.1,0,0,0-2,.76A3.54,3.54,0,0,0,69,49.56a13.12,13.12,0,0,0-.18,2.67v3.6H67.57Z"/><path class="cls-1" d="M77.9,46h1.34l3.29,7.15L85.79,46h1.35l-4.49,9.81h-.24Z"/><path class="cls-1" d="M89.5,42a1.06,1.06,0,0,1,1,1,1,1,0,0,1-1.77.74,1,1,0,0,1-.31-.74,1,1,0,0,1,.31-.73A1,1,0,0,1,89.5,42Zm-.63,4h1.26v9.81H88.87Z"/><path class="cls-1" d="M97.69,47.09l-.81.84a2.91,2.91,0,0,0-2-1,1.52,1.52,0,0,0-1.06.4,1.27,1.27,0,0,0-.44.95,1.42,1.42,0,0,0,.37.91,5.16,5.16,0,0,0,1.51,1,5.64,5.64,0,0,1,1.92,1.4,2.58,2.58,0,0,1,.5,1.54,2.79,2.79,0,0,1-.85,2.05,2.91,2.91,0,0,1-2.12.84,3.7,3.7,0,0,1-1.63-.37,3.54,3.54,0,0,1-1.27-1l.79-.9a2.74,2.74,0,0,0,2,1.09A1.81,1.81,0,0,0,96,54.39a1.48,1.48,0,0,0,.18-2.11,5.66,5.66,0,0,0-1.59-1,5.21,5.21,0,0,1-1.8-1.35,2.58,2.58,0,0,1-.48-1.53A2.46,2.46,0,0,1,93,46.51,2.63,2.63,0,0,1,95,45.77,4,4,0,0,1,97.69,47.09Z"/><path class="cls-1" d="M100.36,42a1,1,0,0,1,1,1,1,1,0,1,1-2.07,0,1,1,0,0,1,.3-.73A1,1,0,0,1,100.36,42Zm-.63,4H101v9.81H99.73Z"/><path class="cls-1" d="M108.26,45.77A4.84,4.84,0,0,1,112,47.41a5.27,5.27,0,0,1-.08,7.13,5.18,5.18,0,0,1-7.37,0A5.11,5.11,0,0,1,103.14,51a5,5,0,0,1,1.36-3.53A4.85,4.85,0,0,1,108.26,45.77Zm0,1.23a3.68,3.68,0,0,0-2.71,1.16,4.06,4.06,0,0,0-.61,4.8,3.65,3.65,0,0,0,1.39,1.42,4,4,0,0,0,3.86,0A3.65,3.65,0,0,0,111.58,53a4,4,0,0,0,.51-2A3.89,3.89,0,0,0,111,48.16,3.67,3.67,0,0,0,108.26,47Z"/><path class="cls-1" d="M115.71,46H117v1.76a5.25,5.25,0,0,1,1.68-1.51,4,4,0,0,1,2-.5,3.5,3.5,0,0,1,1.95.55,3.37,3.37,0,0,1,1.26,1.51,7.94,7.94,0,0,1,.41,3v5H123V51.15a11,11,0,0,0-.14-2.26,2.44,2.44,0,0,0-.84-1.47,2.5,2.5,0,0,0-1.62-.49,3.08,3.08,0,0,0-2.05.76,3.5,3.5,0,0,0-1.2,1.87,13.12,13.12,0,0,0-.18,2.67v3.6h-1.26Z"/><path class="cls-1" d="M133.18,42.38h1.27V46h2v1.09h-2v8.72h-1.27V47.11h-1.72V46h1.72Z"/><path class="cls-1" d="M146.6,52.57l1.06.56a5.7,5.7,0,0,1-1.21,1.66,4.75,4.75,0,0,1-1.54,1,5.37,5.37,0,0,1-1.94.33,4.67,4.67,0,0,1-3.75-1.57,5.37,5.37,0,0,1-.21-6.89,4.67,4.67,0,0,1,3.89-1.85,4.81,4.81,0,0,1,4,1.9A5.28,5.28,0,0,1,148,51h-8.83a4,4,0,0,0,1.09,2.8,3.5,3.5,0,0,0,2.61,1.1,4.28,4.28,0,0,0,1.46-.26,3.91,3.91,0,0,0,1.2-.7A5.63,5.63,0,0,0,146.6,52.57Zm0-2.64a4.08,4.08,0,0,0-.74-1.61,3.41,3.41,0,0,0-1.27-1,4,4,0,0,0-1.67-.37,3.61,3.61,0,0,0-2.49.93,4.25,4.25,0,0,0-1.14,2Z"/><path class="cls-1" d="M160.11,46v9.81h-1.24V54.14a5.38,5.38,0,0,1-1.78,1.45,5,5,0,0,1-5.72-1,5.07,5.07,0,0,1-1.47-3.67,5,5,0,0,1,1.49-3.63,4.85,4.85,0,0,1,3.58-1.5,4.64,4.64,0,0,1,2.18.51,5,5,0,0,1,1.72,1.54V46Zm-5,1a3.9,3.9,0,0,0-1.95.52A3.81,3.81,0,0,0,151.71,49a3.87,3.87,0,0,0-.53,2,4,4,0,0,0,.53,2,3.81,3.81,0,0,0,1.43,1.47,3.73,3.73,0,0,0,1.92.53,3.9,3.9,0,0,0,2-.53A3.59,3.59,0,0,0,158.45,53a4,4,0,0,0,.5-2,3.88,3.88,0,0,0-1.12-2.84A3.7,3.7,0,0,0,155.07,47Z"/><path class="cls-1" d="M162.94,46h1.27v1.69a5,5,0,0,1,1.35-1.37,3.88,3.88,0,0,1,2-.57,3.31,3.31,0,0,1,1.36.28,2.77,2.77,0,0,1,1,.74,3.83,3.83,0,0,1,.71,1.33,4.63,4.63,0,0,1,1.57-1.75,3.74,3.74,0,0,1,2-.6,3.2,3.2,0,0,1,1.79.51,3.11,3.11,0,0,1,1.16,1.43,7.78,7.78,0,0,1,.37,2.76v5.36h-1.29V50.47a7.08,7.08,0,0,0-.22-2.17,2,2,0,0,0-.77-.95A2.28,2.28,0,0,0,174,47a2.8,2.8,0,0,0-1.67.54A3,3,0,0,0,171.25,49a9,9,0,0,0-.35,3v3.84h-1.27v-5a8.59,8.59,0,0,0-.22-2.42,1.93,1.93,0,0,0-.77-1,2.17,2.17,0,0,0-1.3-.39,2.84,2.84,0,0,0-1.64.53,3.12,3.12,0,0,0-1.13,1.42,7.71,7.71,0,0,0-.36,2.73v4.16h-1.27Z"/><path class="cls-1" d="M185.38,46h1.26v1.69A5,5,0,0,1,188,46.34a3.89,3.89,0,0,1,2-.57,3.3,3.3,0,0,1,1.35.28,2.81,2.81,0,0,1,1,.74,4,4,0,0,1,.7,1.33,4.63,4.63,0,0,1,1.57-1.75,3.74,3.74,0,0,1,2-.6,3.18,3.18,0,0,1,1.79.51,3,3,0,0,1,1.16,1.43,7.74,7.74,0,0,1,.38,2.76v5.36h-1.29V50.47a7,7,0,0,0-.23-2.17,1.93,1.93,0,0,0-.77-.95,2.28,2.28,0,0,0-1.3-.36,2.8,2.8,0,0,0-1.67.54A3,3,0,0,0,193.68,49a9.22,9.22,0,0,0-.35,3v3.84h-1.26v-5a9,9,0,0,0-.22-2.42,2,2,0,0,0-.78-1,2.17,2.17,0,0,0-1.3-.39,2.84,2.84,0,0,0-1.64.53A3.12,3.12,0,0,0,187,48.94a7.71,7.71,0,0,0-.36,2.73v4.16h-1.26Z"/><path class="cls-1" d="M211,52.57l1.07.56a5.7,5.7,0,0,1-1.21,1.66,4.79,4.79,0,0,1-1.55,1,5.33,5.33,0,0,1-1.94.33,4.67,4.67,0,0,1-3.75-1.57,5.4,5.4,0,0,1-.21-6.89,4.68,4.68,0,0,1,3.89-1.85,4.84,4.84,0,0,1,4,1.9A5.28,5.28,0,0,1,212.35,51h-8.82a3.93,3.93,0,0,0,1.09,2.8,3.47,3.47,0,0,0,2.61,1.1,4.22,4.22,0,0,0,1.45-.26,3.85,3.85,0,0,0,1.21-.7A5.63,5.63,0,0,0,211,52.57Zm0-2.64a4.22,4.22,0,0,0-.73-1.61,3.45,3.45,0,0,0-1.28-1,4,4,0,0,0-1.67-.37,3.59,3.59,0,0,0-2.48.93,4.18,4.18,0,0,0-1.15,2Z"/><path class="cls-1" d="M214.7,46H216v1.69a5,5,0,0,1,1.35-1.37,3.89,3.89,0,0,1,2-.57,3.3,3.3,0,0,1,1.35.28,2.81,2.81,0,0,1,1,.74,4,4,0,0,1,.7,1.33A4.63,4.63,0,0,1,224,46.37a3.74,3.74,0,0,1,2-.6,3.2,3.2,0,0,1,1.79.51A3,3,0,0,1,229,47.71a7.74,7.74,0,0,1,.38,2.76v5.36h-1.29V50.47a7,7,0,0,0-.23-2.17,1.93,1.93,0,0,0-.77-.95,2.28,2.28,0,0,0-1.3-.36,2.8,2.8,0,0,0-1.67.54A3,3,0,0,0,223,49a9,9,0,0,0-.35,3v3.84h-1.26v-5a9,9,0,0,0-.22-2.42,2,2,0,0,0-.78-1,2.17,2.17,0,0,0-1.3-.39,2.84,2.84,0,0,0-1.64.53,3.12,3.12,0,0,0-1.13,1.42,7.71,7.71,0,0,0-.36,2.73v4.16H214.7Z"/><path class="cls-1" d="M232.11,55.83V42.23h1.26V47.7a5.32,5.32,0,0,1,1.77-1.45,4.85,4.85,0,0,1,2.16-.48,4.77,4.77,0,0,1,3.55,1.51,5,5,0,0,1,1.47,3.66,4.94,4.94,0,0,1-1.49,3.63,4.82,4.82,0,0,1-3.57,1.51,4.6,4.6,0,0,1-2.17-.51A5.12,5.12,0,0,1,233.37,54v1.81Zm5-1a3.8,3.8,0,0,0,3.36-2,3.93,3.93,0,0,0,.53-2,4.06,4.06,0,0,0-.53-2,3.81,3.81,0,0,0-1.43-1.47,3.69,3.69,0,0,0-1.91-.53,3.93,3.93,0,0,0-2,.53,3.62,3.62,0,0,0-1.43,1.42,4.23,4.23,0,0,0,.62,4.86A3.69,3.69,0,0,0,237.15,54.86Z"/><path class="cls-1" d="M252.88,52.57l1.06.56a5.7,5.7,0,0,1-1.21,1.66,4.75,4.75,0,0,1-1.54,1,5.37,5.37,0,0,1-1.94.33,4.67,4.67,0,0,1-3.75-1.57,5.37,5.37,0,0,1-.21-6.89,4.67,4.67,0,0,1,3.89-1.85,4.81,4.81,0,0,1,4,1.9A5.34,5.34,0,0,1,254.27,51h-8.83a4,4,0,0,0,1.09,2.8,3.5,3.5,0,0,0,2.61,1.1,4.28,4.28,0,0,0,1.46-.26,3.91,3.91,0,0,0,1.2-.7A5.63,5.63,0,0,0,252.88,52.57Zm0-2.64a4.22,4.22,0,0,0-.74-1.61,3.41,3.41,0,0,0-1.27-1A4,4,0,0,0,249.2,47a3.61,3.61,0,0,0-2.49.93,4.25,4.25,0,0,0-1.14,2Z"/><path class="cls-1" d="M256.14,46h1.29v1.43a4.66,4.66,0,0,1,1.22-1.27,2.47,2.47,0,0,1,1.33-.41,2.33,2.33,0,0,1,1.12.33l-.66,1.06a1.78,1.78,0,0,0-.66-.17,1.81,1.81,0,0,0-1.22.52,3.26,3.26,0,0,0-.89,1.61,15.1,15.1,0,0,0-.24,3.39v3.32h-1.29Z"/><path class="cls-1" d="M267.11,47.09l-.82.84a2.87,2.87,0,0,0-2-1,1.48,1.48,0,0,0-1.05.4,1.27,1.27,0,0,0-.44.95,1.4,1.4,0,0,0,.36.91,5.39,5.39,0,0,0,1.52,1,5.64,5.64,0,0,1,1.92,1.4,2.57,2.57,0,0,1,.49,1.54,2.78,2.78,0,0,1-.84,2.05,2.92,2.92,0,0,1-2.13.84,3.69,3.69,0,0,1-1.62-.37,3.54,3.54,0,0,1-1.27-1l.79-.9a2.74,2.74,0,0,0,2,1.09,1.81,1.81,0,0,0,1.29-.49,1.48,1.48,0,0,0,.18-2.11,5.66,5.66,0,0,0-1.59-1,5.21,5.21,0,0,1-1.8-1.35,2.58,2.58,0,0,1-.48-1.53,2.46,2.46,0,0,1,.76-1.85,2.63,2.63,0,0,1,1.93-.74A4,4,0,0,1,267.11,47.09Z"/><path class="cls-1" d="M284,48.06l-1,.62A4.18,4.18,0,0,0,279.43,47a4.08,4.08,0,0,0-3,1.15,3.76,3.76,0,0,0-1.19,2.8,4,4,0,0,0,.55,2,3.74,3.74,0,0,0,1.49,1.46,4.37,4.37,0,0,0,2.13.53A4.31,4.31,0,0,0,283,53.19l1,.66a4.64,4.64,0,0,1-1.88,1.65,6,6,0,0,1-2.7.58,5.3,5.3,0,0,1-3.86-1.48A4.77,4.77,0,0,1,274,51a5.19,5.19,0,0,1,2.69-4.55,5.72,5.72,0,0,1,2.8-.68,5.91,5.91,0,0,1,1.88.29,5.17,5.17,0,0,1,1.54.78A4.09,4.09,0,0,1,284,48.06Z"/><path class="cls-1" d="M296.17,46v9.81h-1.24V54.14a5.38,5.38,0,0,1-1.78,1.45,5,5,0,0,1-5.72-1A5.07,5.07,0,0,1,286,50.9a5,5,0,0,1,1.49-3.63,4.84,4.84,0,0,1,3.57-1.5,4.65,4.65,0,0,1,2.19.51,5,5,0,0,1,1.72,1.54V46Zm-5,1a3.81,3.81,0,0,0-3.37,2,4,4,0,0,0-.52,2,4,4,0,0,0,.53,2,3.81,3.81,0,0,0,1.43,1.47,3.73,3.73,0,0,0,1.92.53,3.93,3.93,0,0,0,2-.53A3.59,3.59,0,0,0,294.51,53a4,4,0,0,0,.5-2,3.88,3.88,0,0,0-1.12-2.84A3.7,3.7,0,0,0,291.13,47Z"/><path class="cls-1" d="M299,46h1.27v1.76A5.12,5.12,0,0,1,302,46.27a4.07,4.07,0,0,1,2-.5,3.51,3.51,0,0,1,2,.55,3.42,3.42,0,0,1,1.25,1.51,7.94,7.94,0,0,1,.41,3v5h-1.26V51.15a11.74,11.74,0,0,0-.14-2.26,2.29,2.29,0,0,0-2.47-2,3.08,3.08,0,0,0-2.05.76,3.54,3.54,0,0,0-1.19,1.87,13.12,13.12,0,0,0-.18,2.67v3.6H299Z"/><path class="cls-1" d="M325.16,46v9.81h-1.24V54.14a5.41,5.41,0,0,1-1.79,1.45,4.69,4.69,0,0,1-2.15.49,4.78,4.78,0,0,1-3.56-1.51,5.08,5.08,0,0,1-1.48-3.67,5,5,0,0,1,1.49-3.63,4.87,4.87,0,0,1,3.58-1.5,4.65,4.65,0,0,1,2.19.51,5.09,5.09,0,0,1,1.72,1.54V46Zm-5.05,1a3.81,3.81,0,0,0-3.36,2,3.93,3.93,0,0,0,0,4,3.86,3.86,0,0,0,1.42,1.47,3.76,3.76,0,0,0,1.93.53,3.93,3.93,0,0,0,2-.53A3.66,3.66,0,0,0,323.5,53a4,4,0,0,0,.5-2,3.92,3.92,0,0,0-1.12-2.84A3.71,3.71,0,0,0,320.11,47Z"/><path class="cls-1" d="M337.52,48.06l-1,.62A4.2,4.2,0,0,0,333,47a4.1,4.1,0,0,0-3,1.15,3.76,3.76,0,0,0-1.18,2.8,4,4,0,0,0,.54,2,3.83,3.83,0,0,0,1.5,1.46,4.49,4.49,0,0,0,5.66-1.2l1,.66a4.73,4.73,0,0,1-1.89,1.65,6,6,0,0,1-2.7.58,5.32,5.32,0,0,1-3.86-1.48,4.8,4.8,0,0,1-1.53-3.6,5.09,5.09,0,0,1,.72-2.64,5,5,0,0,1,2-1.91,5.69,5.69,0,0,1,2.8-.68,5.91,5.91,0,0,1,1.88.29,5.3,5.3,0,0,1,1.54.78A4.09,4.09,0,0,1,337.52,48.06Z"/><path class="cls-1" d="M349.47,48.06l-1,.62A4.2,4.2,0,0,0,344.93,47a4.09,4.09,0,0,0-3,1.15,3.76,3.76,0,0,0-1.18,2.8,4,4,0,0,0,.54,2,3.7,3.7,0,0,0,1.5,1.46,4.49,4.49,0,0,0,5.66-1.2l1,.66a4.73,4.73,0,0,1-1.89,1.65,6,6,0,0,1-2.7.58A5.32,5.32,0,0,1,341,54.6a4.8,4.8,0,0,1-1.53-3.6,5.15,5.15,0,0,1,2.68-4.55,5.73,5.73,0,0,1,2.81-.68,6,6,0,0,1,1.88.29,5.24,5.24,0,0,1,1.53.78A4.27,4.27,0,0,1,349.47,48.06Z"/><path class="cls-1" d="M360.15,52.57l1.06.56A5.7,5.7,0,0,1,360,54.79a4.75,4.75,0,0,1-1.54,1,5.37,5.37,0,0,1-1.94.33,4.67,4.67,0,0,1-3.75-1.57,5.37,5.37,0,0,1-.21-6.89,4.67,4.67,0,0,1,3.89-1.85,4.84,4.84,0,0,1,4,1.9A5.28,5.28,0,0,1,361.54,51h-8.83a4,4,0,0,0,1.09,2.8,3.5,3.5,0,0,0,2.61,1.1,4.28,4.28,0,0,0,1.46-.26,4.09,4.09,0,0,0,1.21-.7A5.63,5.63,0,0,0,360.15,52.57Zm0-2.64a4.08,4.08,0,0,0-.74-1.61,3.41,3.41,0,0,0-1.27-1,4,4,0,0,0-1.67-.37,3.61,3.61,0,0,0-2.49.93,4.25,4.25,0,0,0-1.14,2Z"/><path class="cls-1" d="M368.82,47.09l-.81.84a2.87,2.87,0,0,0-2-1,1.48,1.48,0,0,0-1,.4,1.27,1.27,0,0,0-.44.95,1.4,1.4,0,0,0,.36.91,5.24,5.24,0,0,0,1.52,1,5.64,5.64,0,0,1,1.92,1.4,2.57,2.57,0,0,1,.49,1.54,2.75,2.75,0,0,1-.85,2.05,2.88,2.88,0,0,1-2.12.84,3.71,3.71,0,0,1-2.9-1.39l.8-.9a2.73,2.73,0,0,0,2.05,1.09,1.84,1.84,0,0,0,1.29-.49,1.5,1.5,0,0,0,.18-2.11,5.66,5.66,0,0,0-1.59-1,5.27,5.27,0,0,1-1.81-1.35,2.58,2.58,0,0,1-.48-1.53,2.47,2.47,0,0,1,.77-1.85,2.63,2.63,0,0,1,1.93-.74A4,4,0,0,1,368.82,47.09Z"/><path class="cls-1" d="M376,47.09l-.81.84a2.91,2.91,0,0,0-2-1,1.48,1.48,0,0,0-1.05.4,1.24,1.24,0,0,0-.44.95,1.4,1.4,0,0,0,.36.91,5.24,5.24,0,0,0,1.52,1,5.48,5.48,0,0,1,1.91,1.4,2.58,2.58,0,0,1,.5,1.54,2.75,2.75,0,0,1-.85,2.05,2.88,2.88,0,0,1-2.12.84,3.63,3.63,0,0,1-1.62-.37,3.58,3.58,0,0,1-1.28-1l.79-.9A2.76,2.76,0,0,0,373,54.88a1.84,1.84,0,0,0,1.29-.49,1.5,1.5,0,0,0,.53-1.14,1.52,1.52,0,0,0-.35-1,6,6,0,0,0-1.59-1,5.17,5.17,0,0,1-1.81-1.35,2.58,2.58,0,0,1-.48-1.53,2.47,2.47,0,0,1,.77-1.85,2.61,2.61,0,0,1,1.92-.74A4,4,0,0,1,376,47.09Z"/></g></g></svg>