<?xml version="1.0" encoding="utf-8"?>
<!-- Generator: Adobe Illustrator 25.2.1, SVG Export Plug-In . SVG Version: 6.00 Build 0)  -->
<svg version="1.1" id="Capa_1" xmlns="http://www.w3.org/2000/svg" xmlns:xlink="http://www.w3.org/1999/xlink" x="0px" y="0px"
	 viewBox="0 0 70.2 56.8" style="enable-background:new 0 0 70.2 56.8;" xml:space="preserve">
<style type="text/css">
	.st0{fill:#FFFFFF;}
</style>
<g id="Capa_2_1_">
	<g id="Capa_3">
		<path class="st0" d="M55.8,54.9h-5.7V23.7c0-0.5-0.4-0.9-0.9-1H36V1c0-0.5-0.4-1-0.9-1c0,0-0.1,0-0.1,0H10.4c-0.5,0-1,0.5-0.9,1
			v53.9H1c-0.5-0.1-1,0.3-1,0.8c-0.1,0.5,0.3,1,0.8,1c0.1,0,0.1,0,0.2,0h54.8c0.5,0.1,1-0.3,1-0.8c0.1-0.5-0.3-1-0.8-1
			C56,54.9,55.9,54.9,55.8,54.9z M19.8,54.9h-3.7v-8.5c0-0.5,0.4-0.9,0.9-1h1.9c0.5,0,0.9,0.4,0.9,1L19.8,54.9z M23.6,23.7v31.2
			h-1.9v-8.5c0-1.6-1.3-2.8-2.8-2.8l0,0H17c-1.6,0-2.8,1.3-2.8,2.8l0,0v8.5h-2.8v-53h22.7v20.8h-9.5C24.1,22.7,23.7,23.1,23.6,23.7
			L23.6,23.7z M48.2,54.9H25.5V24.6h22.7L48.2,54.9z"/>
		<path class="st0" d="M30.3,13.2h-5.7c-0.5,0-0.9,0.4-0.9,0.9l0,0v5.7c0,0.5,0.4,0.9,0.9,0.9c0,0,0,0,0,0h5.7c0.5,0,0.9-0.4,1-1
			v-5.7C31.2,13.7,30.8,13.3,30.3,13.2z M29.3,18.9h-3.8v-3.8h3.8V18.9z"/>
		<path class="st0" d="M30.3,3.8h-5.7c-0.5,0-0.9,0.4-0.9,0.9v0v5.7c0,0.5,0.4,0.9,0.9,0.9h5.7c0.5,0,0.9-0.4,1-0.9V4.7
			C31.2,4.2,30.8,3.8,30.3,3.8z M29.3,9.5h-3.8V5.7h3.8V9.5z"/>
		<path class="st0" d="M20.8,13.2h-5.7c-0.5,0-1,0.4-1,0.9v5.7c0,0.5,0.5,1,1,1h5.7c0.5,0,0.9-0.4,1-1v-5.7
			C21.7,13.7,21.3,13.3,20.8,13.2z M19.9,18.9h-3.8v-3.8h3.8L19.9,18.9z"/>
		<path class="st0" d="M20.8,3.8h-5.7c-0.5,0-1,0.4-1,0.9v5.7c0,0.5,0.5,1,1,0.9h5.7c0.5,0,0.9-0.4,1-0.9V4.7
			C21.7,4.2,21.3,3.8,20.8,3.8z M19.9,9.5h-3.8V5.7h3.8L19.9,9.5z"/>
		<path class="st0" d="M20.8,22.7h-5.7c-0.5,0-1,0.4-1,1v5.7c0,0.5,0.5,0.9,1,0.9h5.7c0.5,0,0.9-0.4,1-0.9v-5.7
			C21.7,23.1,21.3,22.7,20.8,22.7z M19.9,28.4h-3.8v-3.8h3.8L19.9,28.4z"/>
		<path class="st0" d="M20.8,32.2h-5.7c-0.5,0-1,0.4-1,1v5.7c0,0.6,0.4,1,1,1h5.7c0.5,0,1-0.5,1-1v-5.7
			C21.7,32.6,21.3,32.2,20.8,32.2z M19.9,37.8h-3.8v-3.8h3.8L19.9,37.8z"/>
		<path class="st0" d="M38.8,43.5h5.7c0.5,0,0.9-0.4,0.9-0.9c0,0,0,0,0-0.1v-5.6c0-0.5-0.4-0.9-0.9-0.9c0,0,0,0,0,0h-5.7
			c-0.5,0-0.9,0.4-1,1v5.7C37.9,43.1,38.3,43.5,38.8,43.5z M39.8,37.8h3.8v3.8h-3.8L39.8,37.8z"/>
		<path class="st0" d="M38.8,34.1h5.7c0.5,0,0.9-0.5,0.9-1v-5.6c0-0.5-0.4-0.9-0.9-0.9h-5.7c-0.5,0-0.9,0.4-1,0.9v5.7
			C37.9,33.6,38.3,34,38.8,34.1z M39.8,28.4h3.8v3.8h-3.8L39.8,28.4z"/>
		<path class="st0" d="M38.8,53h5.7c0.5,0,0.9-0.4,0.9-0.9v-5.7c0-0.5-0.4-0.9-0.9-1h-5.7c-0.5,0-0.9,0.4-1,1V52
			C37.9,52.6,38.3,53,38.8,53z M39.8,47.3h3.8v3.8h-3.8L39.8,47.3z"/>
		<path class="st0" d="M29.3,43.5H35c0.5,0,1-0.4,1-0.9c0,0,0-0.1,0-0.1v-5.6c0-0.5-0.4-0.9-1-0.9c0,0,0,0,0,0h-5.7
			c-0.5,0-0.9,0.4-1,0.9c0,0,0,0,0,0v5.7C28.4,43.1,28.8,43.5,29.3,43.5z M30.3,37.8h3.8v3.8h-3.8V37.8z"/>
		<path class="st0" d="M29.3,34.1H35c0.6,0,1-0.4,1-1v-5.6c0-0.5-0.4-0.9-0.9-0.9c0,0,0,0-0.1,0h-5.7c-0.5,0-0.9,0.4-0.9,0.9
			c0,0,0,0,0,0v5.7C28.4,33.6,28.8,34,29.3,34.1z M30.3,28.4h3.8v3.8h-3.8V28.4z"/>
		<path class="st0" d="M29.3,53H35c0.5,0,1-0.4,1-0.9c0,0,0,0,0-0.1v-5.7c0-0.5-0.5-1-1-1h-5.7c-0.5,0-0.9,0.4-1,1V52
			C28.4,52.6,28.8,53,29.3,53C29.3,53,29.3,53,29.3,53z M30.3,47.3h3.8v3.8h-3.8V47.3z"/>
	</g>
</g>
</svg>
