<svg xmlns="http://www.w3.org/2000/svg" viewBox="0 0 174.19 41.91"><defs><style>.cls-1{fill:#fff;}</style></defs><g id="Capa_2" data-name="Capa 2"><g id="Capa_3" data-name="Capa 3"><path class="cls-1" d="M0,.81H3.23V33.16H0Z"/><path class="cls-1" d="M10.14,9.24h3.08v4.28a12.77,12.77,0,0,1,4.09-3.68,10.07,10.07,0,0,1,4.88-1.22A8.56,8.56,0,0,1,27,10,8.12,8.12,0,0,1,30,13.66a19.39,19.39,0,0,1,1,7.19V33.16H27.93V21.75a28.84,28.84,0,0,0-.34-5.52,6.1,6.1,0,0,0-2.06-3.57,6.19,6.19,0,0,0-4-1.2,7.58,7.58,0,0,0-5,1.84,8.71,8.71,0,0,0-2.91,4.58,31.35,31.35,0,0,0-.44,6.51v8.77H10.14Z"/><path class="cls-1" d="M34.77,27.14l2.75-1.65q2.9,5.34,6.7,5.34a6.37,6.37,0,0,0,3.06-.76,5.36,5.36,0,0,0,2.18-2,5.25,5.25,0,0,0,.75-2.71,5.54,5.54,0,0,0-1.1-3.19A26.83,26.83,0,0,0,43.56,17a28.15,28.15,0,0,1-5-4.42,8,8,0,0,1-1.72-4.94,7.55,7.55,0,0,1,1-3.85A7.3,7.3,0,0,1,40.67,1a8.2,8.2,0,0,1,4-1,8.56,8.56,0,0,1,4.28,1.13A14.74,14.74,0,0,1,53.15,5.3l-2.64,2A12.68,12.68,0,0,0,47.4,4.11a5.39,5.39,0,0,0-2.8-.77,4.44,4.44,0,0,0-3.2,1.19,3.88,3.88,0,0,0-1.24,2.92A4.88,4.88,0,0,0,40.6,9.5a7.45,7.45,0,0,0,1.6,2.16c.43.41,1.82,1.48,4.18,3.23a23.23,23.23,0,0,1,5.76,5.52,8.89,8.89,0,0,1,1.56,4.86A8.25,8.25,0,0,1,51,31.38a9,9,0,0,1-6.5,2.6,9.53,9.53,0,0,1-5.34-1.58A14.31,14.31,0,0,1,34.77,27.14Z"/><path class="cls-1" d="M60.08,9.24h3.08v4.39a12.36,12.36,0,0,1,4.19-3.76,11.26,11.26,0,0,1,5.3-1.25,11.8,11.8,0,0,1,8.72,3.67A12.12,12.12,0,0,1,85,21.13a12.32,12.32,0,0,1-3.59,9,12.07,12.07,0,0,1-13.91,2.5,13.17,13.17,0,0,1-4.33-3.54V41.91H60.08Zm12.31,2.35a9,9,0,0,0-6.72,2.79,9.52,9.52,0,0,0-2.73,6.94,9.76,9.76,0,0,0,1.22,4.9,8.88,8.88,0,0,0,3.48,3.45,9.69,9.69,0,0,0,4.8,1.27,9.11,9.11,0,0,0,4.66-1.28,9.49,9.49,0,0,0,3.48-3.6,9.72,9.72,0,0,0,0-9.66,9.27,9.27,0,0,0-8.2-4.81Z"/><path class="cls-1" d="M114.59,9.24V33.16h-3V29.05a13.2,13.2,0,0,1-4.34,3.54A11.81,11.81,0,0,1,102,33.78a11.68,11.68,0,0,1-8.68-3.69,12.36,12.36,0,0,1-3.59-9,12.13,12.13,0,0,1,3.63-8.84A11.83,11.83,0,0,1,102,8.62a11.35,11.35,0,0,1,5.33,1.25,12.18,12.18,0,0,1,4.19,3.76V9.24Zm-12.3,2.35a9.27,9.27,0,0,0-8.2,4.81,9.65,9.65,0,0,0,0,9.66,9.41,9.41,0,0,0,3.48,3.6,9.16,9.16,0,0,0,4.69,1.28,9.62,9.62,0,0,0,4.79-1.27,9,9,0,0,0,3.48-3.45,9.87,9.87,0,0,0,1.22-4.9A9.49,9.49,0,0,0,109,14.38,9,9,0,0,0,102.29,11.59Z"/><path class="cls-1" d="M144.74,14.21l-2.44,1.51a10.22,10.22,0,0,0-8.63-4.2,10,10,0,0,0-7.26,2.82,9.19,9.19,0,0,0-2.89,6.83,9.77,9.77,0,0,0,1.33,4.92,9.37,9.37,0,0,0,3.65,3.58,11,11,0,0,0,13.8-2.93l2.44,1.61a11.54,11.54,0,0,1-4.6,4,14.74,14.74,0,0,1-6.59,1.43,13,13,0,0,1-9.41-3.61,11.73,11.73,0,0,1-3.74-8.77,12.51,12.51,0,0,1,1.75-6.46,12.33,12.33,0,0,1,4.8-4.65,14.08,14.08,0,0,1,6.84-1.67,14.46,14.46,0,0,1,4.59.73,12.68,12.68,0,0,1,3.75,1.89A10.19,10.19,0,0,1,144.74,14.21Z"/><path class="cls-1" d="M170.8,25.22l2.6,1.37a14.13,14.13,0,0,1-3,4A11.77,11.77,0,0,1,166.68,33a13.21,13.21,0,0,1-4.73.8,11.42,11.42,0,0,1-9.15-3.84,13.09,13.09,0,0,1-.51-16.79,11.42,11.42,0,0,1,9.49-4.53,11.83,11.83,0,0,1,9.77,4.64,13,13,0,0,1,2.64,8.18H152.66a9.79,9.79,0,0,0,2.66,6.84,8.53,8.53,0,0,0,6.37,2.66,10.26,10.26,0,0,0,3.55-.63,9.45,9.45,0,0,0,2.94-1.69A14.17,14.17,0,0,0,170.8,25.22Zm0-6.44A10.36,10.36,0,0,0,169,14.84a8.56,8.56,0,0,0-3.12-2.37,9.55,9.55,0,0,0-4.07-.9,8.78,8.78,0,0,0-6.06,2.26,10.25,10.25,0,0,0-2.79,5Z"/></g></g></svg>