<svg xmlns="http://www.w3.org/2000/svg" viewBox="0 0 37.55 36.37"><defs><style>.cls-1{fill:#fff;}</style></defs><g id="Capa_2" data-name="Capa 2"><g id="Capa_3" data-name="Capa 3"><path class="cls-1" d="M12.93,12.6,11.13,16c-.78,1.48-1.59,3.08-2.45,4.79S7,24.21,6.23,25.88,4.83,29,4.38,30.21C4,31.85,4.06,32.79,4.66,33s1.5-.18,2.68-1.28a47.65,47.65,0,0,0,3.82-4.19c1.26-1.54,2.49-3.12,3.71-4.76l1.14.46.34.23q-.69,1.31-1.8,3.24t-2.42,3.82A31.24,31.24,0,0,1,9.4,34,7.8,7.8,0,0,1,6.6,36a5,5,0,0,1-1.82.34,4.85,4.85,0,0,1-2.23-.52A4.53,4.53,0,0,1,.87,34.43a4.69,4.69,0,0,1-.82-2.08,5.46,5.46,0,0,1,.28-2.54c.38-1.17.93-2.66,1.65-4.44S3.47,21.8,4.27,20s1.57-3.36,2.33-4.76a10.19,10.19,0,0,1,1.77-2.63Zm4-10.09a4.43,4.43,0,0,1-1.45,2.05,2.13,2.13,0,0,1-1.86.63,1.56,1.56,0,0,1-1-.91,2.22,2.22,0,0,1-.05-1.49A4.05,4.05,0,0,1,14,.86,3.64,3.64,0,0,1,15.89,0a2,2,0,0,1,.89.91,2.35,2.35,0,0,1,.14,1.66Z"/><path class="cls-1" d="M9.85,35.63a30.88,30.88,0,0,1,1.06-5.05,44.82,44.82,0,0,1,1.62-4.53q.92-2.16,2-4.22c.74-1.37,1.49-2.73,2.26-4.1.41-.8.87-1.63,1.36-2.48s.95-1.68,1.37-2.48H24L23,14.93,21.65,17.1c.34-.26.82-.6,1.43-1s1.25-.79,1.93-1.19,1.34-.76,2-1.09a6.61,6.61,0,0,1,1.51-.6,3.71,3.71,0,0,1,1.94.15,2.58,2.58,0,0,1,1.17,1,4,4,0,0,1,.57,1.51,7.55,7.55,0,0,1,.08,1.71,10.86,10.86,0,0,1-1.45,5.1,41.93,41.93,0,0,1-3,4.47,13.8,13.8,0,0,0-1.37,2.43,5.36,5.36,0,0,0-.57,2,2,2,0,0,0,.17.89.56.56,0,0,0,.54.31,2,2,0,0,0,1-.43,10.08,10.08,0,0,0,1.54-1.39q1.81-2,3.53-4.11c1.14-1.4,2.28-2.83,3.42-4.27a7.12,7.12,0,0,0,.69.34l.74.28h0l-.74,1.2c-.22.38-.51.89-.85,1.54-.53,1-1.12,2-1.77,3.11s-1.31,2.1-2,3.05a20.4,20.4,0,0,1-2.06,2.45,5.63,5.63,0,0,1-1.93,1.36,6.75,6.75,0,0,1-1.71.29,4.2,4.2,0,0,1-1.94-.43,4,4,0,0,1-1.43-1.17,5.12,5.12,0,0,1-.85-1.68A6.5,6.5,0,0,1,22,31a6.14,6.14,0,0,1,.17-1.39,5,5,0,0,1,.46-1.23q1-2.05,2.22-4.36a41.89,41.89,0,0,1,2.68-4.3,3.75,3.75,0,0,0,.57-1.51,1.09,1.09,0,0,0-.34-1,1.55,1.55,0,0,0-1.14-.29,4.58,4.58,0,0,0-1.82.69A19.9,19.9,0,0,0,23.05,19c-.63.55-1.26,1.14-1.88,1.77s-1.23,1.27-1.8,1.94a22.11,22.11,0,0,0-1.48,1.91q-1.2,2.85-2.14,5.53a28.61,28.61,0,0,0-1.34,5.53Z"/></g></g></svg>