<svg xmlns="http://www.w3.org/2000/svg" viewBox="0 0 45 45"><defs><style>.cls-1{fill:#fff;}.cls-2{fill:#fe5076;}</style></defs><g id="Capa_2" data-name="Capa 2"><g id="Capa_3" data-name="Capa 3"><path class="cls-1" d="M18.75,45a7,7,0,0,0,6.89-5.63H11.86A7,7,0,0,0,18.75,45Z"/><path class="cls-1" d="M33,27.18h-.14a15,15,0,0,1-15-15,14.85,14.85,0,0,1,2.82-8.71V1.87a1.88,1.88,0,0,0-3.75,0v2a13.13,13.13,0,0,0-11.25,13V22.1a12.59,12.59,0,0,1-4.48,9.63A3.28,3.28,0,0,0,3.28,37.5H34.22a3.28,3.28,0,0,0,2.11-5.79A12.71,12.71,0,0,1,33,27.18Z"/><path class="cls-2" d="M32.81,0A12.19,12.19,0,1,0,45,12.19,12.2,12.2,0,0,0,32.81,0Zm1.88,16.41a1.41,1.41,0,0,1-2.81,0v-6.1h-.94a1.41,1.41,0,1,1,0-2.81h2.34a1.41,1.41,0,0,1,1.41,1.41Z"/></g></g></svg>