<?xml version="1.0" encoding="utf-8"?>
<!-- Generator: Adobe Illustrator 25.2.1, SVG Export Plug-In . SVG Version: 6.00 Build 0)  -->
<svg version="1.1" id="Capa_1" xmlns="http://www.w3.org/2000/svg" xmlns:xlink="http://www.w3.org/1999/xlink" x="0px" y="0px"
	 viewBox="0 0 541.7 183.6" style="enable-background:new 0 0 541.7 183.6;" xml:space="preserve">
<style type="text/css">
	.st0{fill:#009BC5;}
	.st1{fill:#4DBCC5;}
	.st2{fill:#026581;}
</style>
<path class="st0" d="M86.3,172.2c-26.9,8.5-55.5-6.4-64-33.2s6.4-55.5,33.2-64c17-5.4,35.6-1.5,49,10.3l0,0L89,100.7l-0.4-0.3
	c-12.8-9.8-31.1-7.4-40.9,5.4s-7.4,31.1,5.4,40.9c4,3.1,8.8,5.1,13.9,5.8l0,0L86.3,172.2z"/>
<path class="st1" d="M79.3,151.5l16.5,16.5h0.1c16.1-9,26-26,26-44.5c0-1.9-0.1-3.8-0.3-5.7H80.5v17.2h17.2
	c-3.4,7.8-10.1,13.8-18.2,16.3L79.3,151.5z"/>
<path class="st2" d="M42.5,9.9c0-1.7-1.4-3.1-3.1-3.1c0,0,0,0,0,0h-13c-1.7,0-3.1,1.4-3.1,3.1c0,0,0,0,0,0v81.6
	c0-0.1,0.1-0.1,0.1-0.2C28.4,84,34.9,78,42.5,73.7V9.9z"/>
<path class="st2" d="M138.2,142.8c-0.3-0.3-0.5-0.8-0.5-1.3v-22.7c0.2-0.1,0.4-0.1,0.6-0.2c0.3-0.1,0.6-0.1,0.9-0.1
	c1.2,0,1.8,0.5,1.8,1.5v20.4h11.6c0.3,0.4,0.5,0.9,0.4,1.3c0,0.4-0.1,0.8-0.4,1.1c-0.3,0.3-0.6,0.4-1,0.4h-12.2
	C139,143.3,138.6,143.1,138.2,142.8z"/>
<path class="st2" d="M175.9,138.5c-0.4,1.1-1,2-1.9,2.8c-0.9,0.8-1.9,1.4-3,1.8c-2.7,0.9-5.5,0.9-8.2,0c-1.1-0.4-2.1-1-3-1.8
	c-0.8-0.8-1.4-1.8-1.8-2.8c-0.4-1.2-0.6-2.5-0.6-3.7v-16c0.2-0.1,0.4-0.1,0.6-0.2c0.3-0.1,0.6-0.1,0.9-0.1c1.2,0,1.7,0.5,1.7,1.5
	v14.5c0,1,0.1,1.9,0.5,2.8c0.3,0.7,0.8,1.4,1.3,2c0.6,0.6,1.2,1,2,1.2c1.6,0.5,3.4,0.5,5,0c0.8-0.3,1.4-0.7,2-1.2
	c0.6-0.6,1-1.3,1.3-2c0.3-0.9,0.5-1.9,0.5-2.8v-15.8c0.2-0.1,0.4-0.1,0.6-0.2c0.3-0.1,0.6-0.1,0.9-0.1c1.2,0,1.8,0.5,1.8,1.5v14.8
	C176.6,136.1,176.4,137.3,175.9,138.5z"/>
<path class="st2" d="M186.4,143.4c-0.3,0.1-0.6,0.1-0.9,0.1c-1.2,0-1.8-0.5-1.8-1.5v-23.3c0.2-0.1,0.4-0.1,0.6-0.2
	c0.3-0.1,0.6-0.1,0.9-0.1c1.2,0,1.7,0.5,1.7,1.5v23.2L186.4,143.4z"/>
<path class="st2" d="M201.1,141.1c1.5,0.1,2.9-0.3,4.1-1.2c0.9-0.8,1.4-2,1.4-3.2c0-1-0.4-2-1.1-2.8c-1-0.8-2.1-1.4-3.4-1.7l-3.5-1
	c-1.5-0.4-2.9-1.2-4.1-2.3c-1-1.1-1.5-2.5-1.5-4c0-1,0.2-1.9,0.6-2.8c0.4-0.8,1-1.5,1.7-2.1c0.8-0.6,1.7-1.1,2.7-1.4
	c1.1-0.3,2.3-0.5,3.4-0.5c1,0,2,0.1,3,0.3c0.8,0.1,1.7,0.4,2.4,0.7c0.6,0.2,1.1,0.6,1.6,1c0.3,0.3,0.5,0.7,0.6,1.2
	c0,0.4-0.1,0.7-0.3,1c-0.2,0.3-0.4,0.5-0.7,0.6c-0.8-0.6-1.8-1.1-2.7-1.4c-1.2-0.4-2.5-0.6-3.7-0.6c-1.3-0.1-2.6,0.3-3.7,1
	c-0.9,0.7-1.4,1.7-1.4,2.8c0,0.9,0.3,1.7,1,2.3c1,0.7,2.1,1.3,3.2,1.5l2.5,0.7c1.8,0.5,3.6,1.4,5,2.6c1.3,1.2,1.9,2.9,1.9,4.7
	c0.1,2-0.8,3.9-2.3,5.2c-1.9,1.4-4.2,2.1-6.6,2c-1.1,0-2.3-0.1-3.4-0.3c-0.9-0.2-1.8-0.5-2.6-0.9c-0.6-0.3-1.2-0.7-1.7-1.1
	c-0.3-0.3-0.6-0.8-0.6-1.2c0-0.4,0.1-0.8,0.4-1.1c0.3-0.3,0.6-0.5,1-0.7c0.8,0.7,1.6,1.3,2.6,1.8c0.6,0.3,1.2,0.5,1.9,0.6
	C199.6,141,200.3,141.1,201.1,141.1z"/>
<path class="st2" d="M241.5,121.4c0,0.4-0.1,0.7-0.3,1c-0.2,0.3-0.5,0.5-0.8,0.6c-0.8-0.5-1.6-1-2.5-1.4c-2.3-0.9-4.8-0.9-7.1,0
	c-1,0.4-2,1.1-2.8,1.9c-0.8,0.9-1.5,2-1.8,3.2c-0.5,1.4-0.7,2.9-0.7,4.4c0,1.5,0.2,3,0.6,4.4c0.4,1.2,1,2.2,1.8,3.1
	c0.8,0.8,1.7,1.5,2.8,1.9c1.2,0.4,2.4,0.6,3.6,0.6c1.2,0,2.5-0.2,3.6-0.6c0.9-0.3,1.8-0.8,2.6-1.4c0.3,0.1,0.6,0.3,0.8,0.6
	c0.2,0.3,0.4,0.6,0.4,1c-0.1,0.6-0.4,1.2-1,1.5c-0.8,0.5-1.6,0.9-2.5,1.2c-1.3,0.4-2.7,0.5-4.1,0.5c-1.6,0-3.2-0.3-4.7-0.8
	c-1.4-0.5-2.7-1.3-3.8-2.4c-1.1-1.1-2-2.5-2.5-4c-1.3-3.6-1.3-7.6,0-11.2c0.6-1.5,1.5-2.9,2.6-4c1.1-1.1,2.4-1.9,3.8-2.4
	c1.5-0.5,3-0.8,4.6-0.8c1,0,2,0.1,3,0.3c0.8,0.1,1.6,0.4,2.4,0.7c0.6,0.3,1.1,0.6,1.5,1.1C241.2,120.6,241.4,121,241.5,121.4z"/>
<path class="st2" d="M261.8,136.7H251l-0.6,1.8l-0.6,1.9c-0.2,0.6-0.4,1.2-0.6,1.7s-0.3,1-0.5,1.3c-0.4,0.2-0.9,0.3-1.3,0.2
	c-0.4,0-0.8-0.1-1.1-0.3c-0.4-0.3-0.5-0.7-0.5-1.1c0-0.3,0-0.5,0.1-0.8c0.1-0.2,0.2-0.5,0.3-0.8c0.4-1.1,0.9-2.6,1.6-4.4
	s1.3-3.7,2.1-5.7s1.5-4,2.3-6.1s1.5-3.9,2.1-5.5c0.3-0.1,0.7-0.3,1-0.3c0.4-0.1,0.9-0.2,1.3-0.2c0.5,0,1.1,0.1,1.6,0.2
	c0.4,0.1,0.8,0.4,1,0.8c0.7,1.6,1.4,3.3,2.1,5.4c0.8,2,1.5,4.1,2.2,6.2s1.5,4.2,2.2,6.2s1.3,3.9,1.8,5.5c-0.2,0.2-0.5,0.4-0.8,0.6
	c-0.3,0.1-0.7,0.2-1,0.2c-0.4,0-0.8-0.1-1.2-0.3c-0.3-0.3-0.6-0.7-0.7-1.2L261.8,136.7z M256.4,121.3c-0.3,0.8-0.6,1.7-1,2.8
	s-0.8,2.1-1.2,3.2c-0.4,1.1-0.8,2.3-1.2,3.4s-0.8,2.3-1.1,3.3h9.1c-0.4-1.2-0.8-2.4-1.2-3.7s-0.8-2.4-1.2-3.5s-0.8-2.2-1.1-3.1
	s-0.6-1.8-0.8-2.4L256.4,121.3z"/>
<path class="st2" d="M275.4,143.2l-0.6,0.2c-0.3,0.1-0.6,0.1-0.9,0.1c-1.2,0-1.8-0.5-1.8-1.5v-21.6c0-0.4,0.1-0.7,0.3-1
	c0.3-0.3,0.6-0.5,1-0.6c0.9-0.3,1.9-0.4,2.9-0.5c1.1-0.1,2.2-0.2,3.3-0.2c3.4,0,5.9,0.7,7.6,2.1c1.7,1.4,2.6,3.6,2.5,5.8
	c0.1,1.7-0.5,3.3-1.4,4.7c-1.1,1.4-2.6,2.3-4.4,2.7c0.7,0.9,1.4,1.7,2,2.6l1.9,2.4l1.6,2.1l1.1,1.4c-0.1,0.4-0.3,0.8-0.7,1.1
	c-0.7,0.5-1.6,0.5-2.2,0.1c-0.4-0.3-0.7-0.6-0.9-1l-5.9-8.2h-5.4L275.4,143.2z M280,131.2c1.7,0.1,3.3-0.4,4.7-1.3
	c1.2-0.9,1.8-2.4,1.7-3.8c0.1-1.5-0.6-2.9-1.8-3.8c-1.5-0.9-3.3-1.4-5.1-1.3c-0.7,0-1.5,0-2.2,0.1c-0.7,0-1.3,0.1-2,0.3v9.9
	L280,131.2z"/>
<path class="st2" d="M296.4,142.8c-0.3-0.3-0.5-0.8-0.5-1.3v-22.7c0.2-0.1,0.4-0.1,0.6-0.2c0.3-0.1,0.6-0.1,0.9-0.1
	c1.2,0,1.8,0.5,1.8,1.5v20.4h11.6c0.3,0.4,0.5,0.9,0.4,1.3c0,0.4-0.1,0.8-0.4,1.1c-0.3,0.3-0.6,0.4-1,0.4h-12.2
	C297.2,143.3,296.8,143.1,296.4,142.8z"/>
<path class="st2" d="M337,131c0,1.9-0.3,3.8-0.9,5.6c-0.5,1.5-1.4,2.9-2.5,4c-1.1,1.1-2.3,1.9-3.7,2.4c-3,1.1-6.3,1.1-9.3,0
	c-1.4-0.5-2.7-1.4-3.7-2.4c-1.1-1.1-1.9-2.5-2.5-4c-0.6-1.8-0.9-3.7-0.9-5.6c0-1.9,0.3-3.8,0.9-5.5c0.5-1.5,1.4-2.9,2.5-4
	c1.1-1.1,2.3-1.9,3.7-2.4c3-1.1,6.2-1.1,9.2,0c1.4,0.5,2.7,1.4,3.7,2.4c1.1,1.1,1.9,2.5,2.5,4C336.7,127.2,337,129.1,337,131z
	 M333.6,131c0-3.2-0.8-5.7-2.3-7.4c-1.5-1.7-3.8-2.7-6.1-2.6c-1.2,0-2.4,0.2-3.4,0.7c-1,0.4-1.9,1.1-2.6,1.9c-0.8,0.9-1.3,2-1.7,3.1
	c-0.4,1.4-0.6,2.8-0.6,4.3c0,3.2,0.8,5.7,2.3,7.4c3.2,3.4,8.6,3.5,11.9,0.2c0.1-0.1,0.2-0.2,0.2-0.2
	C332.9,136.7,333.7,134.2,333.6,131L333.6,131z"/>
<path class="st2" d="M349.6,141.1c1.5,0.1,2.9-0.3,4.1-1.2c0.9-0.8,1.4-2,1.4-3.2c0-1-0.4-2-1.1-2.8c-1-0.8-2.1-1.4-3.4-1.7l-3.5-1
	c-1.5-0.4-2.9-1.2-4.1-2.3c-1-1.1-1.5-2.5-1.5-4c0-1,0.2-1.9,0.6-2.8c0.4-0.8,1-1.5,1.7-2.1c0.8-0.6,1.7-1,2.6-1.3
	c1.1-0.3,2.3-0.5,3.4-0.5c1,0,2,0.1,3,0.3c0.8,0.1,1.7,0.4,2.4,0.7c0.6,0.2,1.1,0.6,1.6,1c0.3,0.3,0.5,0.7,0.6,1.2
	c0,0.4-0.1,0.7-0.3,1c-0.2,0.3-0.4,0.5-0.7,0.6c-0.8-0.6-1.8-1.1-2.7-1.4c-1.2-0.4-2.5-0.6-3.7-0.6c-1.3-0.1-2.6,0.3-3.7,1
	c-0.9,0.7-1.4,1.7-1.4,2.8c0,0.9,0.3,1.7,1,2.3c1,0.7,2.1,1.3,3.2,1.5l2.5,0.7c1.8,0.5,3.6,1.4,5,2.6c1.3,1.2,1.9,2.9,1.8,4.7
	c0.1,2-0.8,3.9-2.3,5.2c-1.9,1.4-4.2,2.1-6.6,2c-1.1,0-2.3-0.1-3.4-0.3c-0.9-0.2-1.8-0.5-2.6-0.9c-0.6-0.3-1.2-0.7-1.7-1.1
	c-0.3-0.3-0.6-0.8-0.6-1.2c0-0.4,0.1-0.8,0.4-1.1c0.3-0.3,0.6-0.5,1-0.7c0.8,0.7,1.6,1.3,2.6,1.8c0.6,0.3,1.2,0.5,1.9,0.6
	C348.1,141.1,348.9,141.1,349.6,141.1z"/>
<path class="st2" d="M391.6,140.4c0,0.4-0.1,0.9-0.4,1.2c-0.4,0.4-0.8,0.7-1.3,0.9c-0.9,0.4-1.8,0.7-2.8,0.9
	c-1.2,0.2-2.4,0.4-3.6,0.4c-1.8,0-3.5-0.2-5.2-0.8c-1.5-0.5-2.9-1.3-4-2.3c-1.2-1.1-2.1-2.5-2.6-4c-0.7-1.8-1-3.7-0.9-5.7
	c0-1.9,0.3-3.9,1-5.7c0.6-1.5,1.5-2.9,2.6-4c1.1-1.1,2.5-1.9,3.9-2.4c1.5-0.5,3.1-0.8,4.7-0.8c1.1,0,2.1,0.1,3.1,0.3
	c0.8,0.1,1.7,0.4,2.4,0.7c0.6,0.2,1.1,0.6,1.6,1c0.3,0.3,0.5,0.7,0.6,1.1c0,0.4-0.1,0.7-0.3,1c-0.2,0.3-0.5,0.5-0.8,0.6
	c-0.8-0.5-1.7-1-2.6-1.4c-1.2-0.5-2.5-0.7-3.9-0.6c-1.2,0-2.5,0.2-3.6,0.6c-1.1,0.4-2.1,1.1-2.9,1.9c-0.9,0.9-1.5,2-1.9,3.2
	c-0.5,1.4-0.7,2.9-0.7,4.4c0,1.5,0.2,3.1,0.7,4.5c0.4,1.2,1.1,2.2,2,3.1c0.9,0.8,1.9,1.4,3,1.8c1.2,0.4,2.5,0.6,3.7,0.6
	c0.9,0,1.8-0.1,2.8-0.2c0.7-0.1,1.4-0.3,2-0.6v-7.4h-6.1c-0.1-0.2-0.2-0.4-0.2-0.6c-0.1-0.2-0.1-0.5-0.1-0.8c0-0.4,0.1-0.8,0.3-1.1
	c0.2-0.3,0.6-0.4,0.9-0.4h6.8c0.5,0,0.9,0.2,1.2,0.5c0.3,0.3,0.5,0.8,0.5,1.2L391.6,140.4z"/>
<path class="st2" d="M416.4,138.5c-0.4,1.1-1,2-1.9,2.8c-0.9,0.8-1.9,1.4-3,1.8c-2.7,0.9-5.5,0.9-8.2,0c-1.1-0.4-2.1-1-3-1.8
	c-0.8-0.8-1.4-1.8-1.8-2.8c-0.4-1.2-0.6-2.5-0.6-3.7v-16c0.2-0.1,0.4-0.1,0.6-0.2c0.3-0.1,0.6-0.1,0.9-0.1c1.2,0,1.7,0.5,1.7,1.5
	v14.5c0,1,0.1,1.9,0.5,2.8c0.3,0.7,0.7,1.4,1.3,2c0.6,0.6,1.2,1,2,1.2c1.6,0.5,3.4,0.5,5,0c0.8-0.3,1.4-0.7,2-1.2
	c0.6-0.6,1-1.3,1.3-2c0.3-0.9,0.5-1.9,0.5-2.8v-15.8c0.2-0.1,0.4-0.1,0.6-0.2c0.3-0.1,0.6-0.1,0.9-0.1c1.2,0,1.8,0.5,1.8,1.5v14.8
	C417.1,136.1,416.9,137.3,416.4,138.5z"/>
<path class="st2" d="M440.7,119.4c0.1,0.3,0.2,0.6,0.2,0.9c0,0.3-0.1,0.7-0.2,1c-0.2,0.3-0.4,0.7-0.6,1l-13.3,18.2h14
	c0.1,0.2,0.2,0.4,0.3,0.6c0.1,0.3,0.1,0.5,0.1,0.8c0,0.4-0.1,0.8-0.3,1.1c-0.2,0.3-0.6,0.4-0.9,0.4h-16.5c-0.2-0.2-0.4-0.4-0.5-0.7
	c-0.1-0.3-0.2-0.6-0.2-0.9c0-0.3,0.1-0.7,0.2-1c0.2-0.3,0.4-0.7,0.6-1l13.3-18.2h-13.5c-0.1-0.2-0.2-0.4-0.3-0.6
	c-0.1-0.3-0.1-0.5-0.1-0.8c0-0.4,0.1-0.8,0.4-1.1c0.3-0.3,0.6-0.4,1-0.4h15.9C440.4,119,440.6,119.2,440.7,119.4z"/>
<path class="st2" d="M460.5,136.9c-0.2,0.2-0.5,0.3-0.8,0.4c-0.3,0.1-0.7,0.2-1,0.2c-0.4,0-0.8-0.1-1.1-0.2
	c-0.3-0.1-0.6-0.3-0.7-0.6c-1.5-3-2.7-5.8-3.8-8.3c-1.1-2.5-1.9-4.6-2.5-6.2h-0.2c-0.1,2-0.2,3.9-0.3,5.6c-0.1,1.7-0.2,3.4-0.3,5.1
	s-0.2,3.3-0.3,5s-0.2,3.5-0.3,5.5l-0.6,0.2c-0.3,0.1-0.6,0.1-0.8,0.1c-0.4,0-0.9-0.1-1.2-0.4c-0.3-0.3-0.4-0.7-0.4-1.1
	c0-0.3,0-0.9,0.1-1.7c0-0.9,0.1-2,0.2-3.2s0.2-2.7,0.3-4.2s0.2-3.1,0.3-4.7c0.1-1.6,0.2-3.2,0.4-4.7s0.2-2.9,0.3-4.2
	c0.3-0.2,0.6-0.4,0.9-0.5c0.4-0.2,0.9-0.2,1.4-0.2c1.1-0.1,2.1,0.5,2.6,1.5c0.5,1.1,1,2.2,1.6,3.3s1,2.4,1.6,3.6
	c0.5,1.2,1,2.4,1.5,3.6l1.4,3.4h0.2c0.6-1.4,1.2-2.8,1.8-4.2s1.2-2.7,1.7-4s1.1-2.5,1.6-3.6s1-2.2,1.4-3.1c0.3-0.1,0.6-0.2,0.9-0.3
	c0.3-0.1,0.7-0.1,1.1-0.1c1.3,0,2,0.4,2.2,1.3c0.1,0.5,0.2,1.3,0.4,2.4s0.3,2.4,0.4,3.9s0.3,3,0.4,4.7s0.2,3.3,0.4,4.8
	s0.2,3,0.3,4.3s0.1,2.3,0.2,3.1c-0.5,0.3-1.1,0.5-1.7,0.5c-0.4,0-0.8-0.1-1.1-0.3c-0.3-0.3-0.5-0.7-0.5-1.1c-0.1-2-0.3-4-0.4-5.9
	c-0.1-1.9-0.2-3.8-0.3-5.6c-0.1-1.8-0.2-3.4-0.3-4.8s-0.1-2.7-0.2-3.7h-0.2c-0.3,0.8-0.6,1.6-1,2.6s-0.9,2-1.4,3.2
	c-0.5,1.2-1.1,2.5-1.8,4S461.3,135.1,460.5,136.9z"/>
<path class="st2" d="M492,136.7h-10.8c-0.2,0.5-0.4,1.1-0.6,1.8l-0.6,1.9c-0.2,0.6-0.4,1.2-0.6,1.7s-0.3,1-0.4,1.3
	c-0.4,0.2-0.9,0.2-1.3,0.2c-0.4,0-0.8-0.1-1.1-0.3c-0.4-0.3-0.5-0.7-0.5-1.1c0-0.2,0-0.5,0.1-0.7c0.1-0.2,0.2-0.5,0.3-0.8
	c0.4-1.1,0.9-2.6,1.6-4.4s1.3-3.7,2.1-5.7s1.5-4,2.3-6.1s1.5-3.9,2.1-5.5c0.3-0.1,0.7-0.2,1-0.3c0.4-0.1,0.9-0.2,1.3-0.2
	c0.5,0,1.1,0.1,1.6,0.2c0.4,0.1,0.8,0.4,1,0.8c0.6,1.6,1.3,3.4,2.1,5.4s1.5,4.1,2.2,6.2s1.5,4.2,2.2,6.2s1.3,3.9,1.8,5.5
	c-0.2,0.2-0.5,0.4-0.8,0.6c-0.3,0.1-0.7,0.2-1,0.2c-0.4,0-0.8-0.1-1.2-0.3c-0.3-0.3-0.6-0.7-0.7-1.2L492,136.7z M486.6,121.3
	c-0.3,0.8-0.6,1.7-1,2.8s-0.8,2.1-1.2,3.2c-0.4,1.1-0.8,2.3-1.2,3.4s-0.8,2.3-1.1,3.3h9.1c-0.4-1.2-0.8-2.4-1.3-3.7l-1.2-3.5
	c-0.4-1.1-0.8-2.2-1.1-3.1s-0.6-1.8-0.8-2.4L486.6,121.3z"/>
<path class="st2" d="M504,143.5c-1.2,0-1.8-0.5-1.8-1.5v-22.9c0.6-0.5,1.4-0.8,2.2-0.7c0.6,0,1.1,0.1,1.7,0.4c0.5,0.3,1,0.8,1.3,1.4
	l7.7,12.9c0.3,0.6,0.7,1.2,1,1.8c0.3,0.6,0.7,1.3,1,1.9s0.6,1.2,0.9,1.8l0.7,1.4h0.2c-0.2-2.2-0.3-4.4-0.4-6.6s-0.1-4.4-0.1-6.5
	v-8.2c0.2-0.1,0.4-0.1,0.7-0.2c0.3-0.1,0.6-0.1,0.9-0.1c1.2,0,1.8,0.5,1.8,1.4v22.9c-0.3,0.2-0.6,0.4-0.9,0.5
	c-0.4,0.1-0.8,0.2-1.2,0.2c-0.6,0-1.1-0.1-1.7-0.4c-0.5-0.3-1-0.8-1.3-1.4l-7.6-13c-0.3-0.5-0.7-1.1-1-1.8s-0.7-1.3-1-1.9
	s-0.7-1.2-0.9-1.8s-0.5-1-0.7-1.4h-0.2c0.1,1.3,0.2,2.8,0.3,4.4c0.1,1.7,0.1,3.2,0.1,4.7v12.1c-0.1,0.1-0.4,0.1-0.6,0.2
	C504.6,143.5,504.3,143.5,504,143.5z"/>
<path class="st1" d="M148.6,165.9c0,1-0.1,2-0.5,3c-0.3,0.8-0.8,1.5-1.4,2.1c-0.6,0.6-1.3,1-2.1,1.3c-0.9,0.3-1.9,0.4-2.8,0.4
	c-0.4,0-1,0-1.5-0.1c-0.6,0-1.1-0.1-1.6-0.3c-0.6-0.2-0.9-0.5-0.9-1v-10.9c0-0.2,0-0.4,0.2-0.5c0.1-0.1,0.3-0.2,0.5-0.3
	c0.5-0.1,1-0.2,1.5-0.3c0.6,0,1.1-0.1,1.7-0.1c1,0,1.9,0.1,2.9,0.4c0.8,0.3,1.6,0.7,2.2,1.2c0.6,0.6,1.1,1.3,1.4,2.1
	C148.5,163.9,148.6,164.9,148.6,165.9z M146.8,165.9c0-0.8-0.1-1.6-0.4-2.4c-0.2-0.6-0.6-1.2-1.1-1.6c-0.5-0.4-1.1-0.7-1.7-0.9
	c-0.6-0.2-1.3-0.3-2-0.3c-0.5,0-0.9,0-1.2,0s-0.6,0.1-0.9,0.1V171c0.4,0.1,0.7,0.1,1.1,0.2c0.4,0,0.8,0,1.2,0
	c1.4,0.1,2.8-0.4,3.8-1.4C146.5,168.7,146.9,167.3,146.8,165.9z"/>
<path class="st1" d="M151.2,159.5c0-0.3,0.1-0.6,0.3-0.8c0.2-0.2,0.5-0.3,0.8-0.3c0.3,0,0.6,0.1,0.8,0.3c0.2,0.2,0.3,0.5,0.3,0.8
	c0,0.6-0.4,1-0.9,1.1c-0.1,0-0.1,0-0.2,0c-0.3,0-0.6-0.1-0.8-0.3C151.3,160.1,151.2,159.8,151.2,159.5z M153.2,172.5
	c-0.1,0-0.2,0.1-0.3,0.1c-0.2,0-0.3,0.1-0.5,0.1c-0.6,0-0.9-0.3-0.9-0.8v-9.2l0.3-0.1c0.2,0,0.3,0,0.5,0c0.6,0,0.9,0.3,0.9,0.8
	V172.5z"/>
<path class="st1" d="M163.5,169.9c0,0.8-0.3,1.6-1,2.1c-0.9,0.6-1.9,0.8-2.9,0.8c-0.5,0-1,0-1.5-0.1c-0.4-0.1-0.8-0.2-1.2-0.4
	c-0.3-0.1-0.5-0.3-0.8-0.5c-0.2-0.2-0.3-0.4-0.3-0.6c0-0.2,0.1-0.3,0.1-0.5c0.1-0.2,0.2-0.3,0.4-0.4c0.4,0.3,0.9,0.6,1.4,0.8
	c0.6,0.2,1.1,0.4,1.8,0.3c1.5,0,2.2-0.5,2.2-1.5c0-0.8-0.5-1.3-1.5-1.6l-1.8-0.5c-0.7-0.1-1.4-0.5-1.9-1c-0.4-0.5-0.6-1.1-0.6-1.7
	c0-0.4,0.1-0.7,0.2-1.1c0.2-0.3,0.4-0.7,0.7-0.9c0.3-0.3,0.7-0.5,1.2-0.6c0.5-0.2,1.1-0.2,1.6-0.2c0.8,0,1.7,0.1,2.4,0.4
	c0.6,0.3,0.9,0.6,0.9,1c0,0.2,0,0.3-0.1,0.5c-0.1,0.1-0.2,0.3-0.4,0.3c-0.3-0.2-0.7-0.4-1.1-0.6c-0.5-0.2-1.1-0.3-1.7-0.3
	c-0.5,0-1.1,0.1-1.5,0.4c-0.4,0.2-0.6,0.6-0.6,1c0,0.3,0.1,0.6,0.3,0.8c0.3,0.3,0.7,0.4,1.1,0.5l1.5,0.4c0.8,0.2,1.6,0.5,2.2,1.1
	C163.3,168.4,163.6,169.1,163.5,169.9z"/>
<path class="st1" d="M167.4,168.6c0.4,1.9,1.6,2.8,3.7,2.8c0.6,0,1.1-0.1,1.6-0.3c0.4-0.2,0.8-0.4,1.1-0.6c0.3,0.2,0.5,0.5,0.5,0.8
	c0,0.2-0.1,0.4-0.3,0.6c-0.2,0.2-0.5,0.4-0.7,0.5c-0.3,0.2-0.7,0.3-1.1,0.3c-0.4,0.1-0.9,0.1-1.3,0.1c-1.4,0.1-2.8-0.4-3.9-1.4
	c-1-1-1.5-2.5-1.4-3.9c0-0.7,0.1-1.5,0.4-2.2c0.2-0.6,0.6-1.1,1-1.6c0.4-0.4,0.9-0.8,1.5-1c0.6-0.2,1.3-0.4,1.9-0.4
	c0.6,0,1.2,0.1,1.8,0.3c0.5,0.2,1,0.5,1.4,0.9c0.4,0.4,0.7,0.9,0.9,1.4c0.2,0.6,0.3,1.2,0.3,1.8c0,0.2-0.1,0.5-0.2,0.7
	c-0.2,0.1-0.4,0.2-0.6,0.2L167.4,168.6z M170.4,163.7c-0.8,0-1.6,0.3-2.2,0.9c-0.6,0.7-0.9,1.7-0.9,2.6l5.9-0.8
	c0-0.7-0.3-1.4-0.8-1.9C171.8,164,171.1,163.7,170.4,163.7L170.4,163.7z"/>
<path class="st1" d="M184.4,166.1c0.1-0.7-0.2-1.3-0.7-1.8c-0.5-0.4-1.2-0.6-1.8-0.6c-0.5,0-1,0.1-1.5,0.2c-0.4,0.1-0.8,0.3-1.1,0.5
	v8c-0.1,0-0.2,0.1-0.3,0.1c-0.2,0-0.3,0.1-0.5,0.1c-0.6,0-0.9-0.3-0.9-0.8v-7.3c0-0.3,0.1-0.5,0.2-0.7c0.2-0.2,0.4-0.4,0.6-0.6
	c0.5-0.3,1-0.5,1.5-0.6c0.7-0.2,1.4-0.3,2.1-0.3c1.1-0.1,2.2,0.2,3.1,0.9c0.8,0.7,1.2,1.7,1.1,2.8v6.4c-0.1,0-0.2,0.1-0.3,0.1
	c-0.2,0-0.3,0.1-0.5,0.1c-0.6,0-0.9-0.3-0.9-0.8L184.4,166.1z M180,158.6c0.3,0,0.6,0,0.8,0.1c0.3,0.1,0.5,0.2,0.7,0.2l0.6,0.2
	c0.2,0.1,0.4,0.1,0.6,0.1c0.2,0,0.4-0.1,0.6-0.2c0.1-0.2,0.2-0.4,0.3-0.6h0.1c0.2,0,0.5,0.1,0.7,0.2c0.2,0.1,0.3,0.4,0.3,0.6
	c0,0.4-0.1,0.8-0.4,1c-0.3,0.3-0.7,0.4-1.1,0.4c-0.3,0-0.6,0-0.9-0.1c-0.3-0.1-0.5-0.2-0.8-0.3l-0.6-0.2c-0.2-0.1-0.4-0.1-0.6-0.1
	c-0.2,0-0.4,0.1-0.6,0.2c-0.1,0.2-0.2,0.4-0.3,0.6h-0.1c-0.2,0-0.5-0.1-0.7-0.2c-0.2-0.1-0.3-0.4-0.3-0.6c0-0.4,0.2-0.8,0.5-1
	C179.2,158.7,179.6,158.6,180,158.6L180,158.6z"/>
<path class="st1" d="M192.8,162.4c1-0.1,2.1,0.2,2.9,0.8c0.8,0.6,1.2,1.6,1.1,2.6v5.1c0,0.3,0,0.5-0.2,0.7c-0.1,0.2-0.3,0.3-0.5,0.5
	c-0.4,0.2-0.9,0.4-1.4,0.5c-0.6,0.2-1.3,0.2-1.9,0.2c-1.1,0.1-2.2-0.2-3.1-0.8c-0.7-0.5-1.1-1.4-1.1-2.3c-0.1-0.8,0.3-1.6,0.9-2.1
	c0.8-0.5,1.7-0.8,2.6-0.9l3-0.3v-0.6c0.1-0.6-0.2-1.2-0.6-1.6c-0.5-0.4-1.1-0.5-1.7-0.5c-0.6,0-1.1,0.1-1.7,0.3
	c-0.5,0.2-1,0.3-1.4,0.6c-0.1-0.1-0.2-0.2-0.3-0.3c-0.1-0.1-0.1-0.3-0.1-0.4c0-0.2,0-0.3,0.1-0.5c0.1-0.2,0.3-0.3,0.5-0.4
	c0.4-0.2,0.9-0.4,1.3-0.5C191.7,162.4,192.2,162.3,192.8,162.4z M192.8,171.4c0.5,0,1,0,1.5-0.2c0.3-0.1,0.6-0.2,0.8-0.4v-3.1
	l-2.6,0.3c-0.6,0-1.2,0.2-1.6,0.5c-0.4,0.3-0.6,0.7-0.5,1.2c0,0.5,0.2,1,0.6,1.2C191.5,171.3,192.1,171.5,192.8,171.4L192.8,171.4z"
	/>
<path class="st1" d="M208.4,170.9c0,0.2,0,0.5-0.2,0.7c-0.2,0.2-0.4,0.3-0.6,0.5c-0.4,0.2-0.8,0.4-1.2,0.5c-0.6,0.2-1.2,0.3-1.8,0.2
	c-0.7,0-1.4-0.1-2.1-0.3c-0.6-0.2-1.2-0.5-1.7-0.9c-0.5-0.4-0.8-1-1.1-1.6c-0.5-1.5-0.5-3.2,0-4.7c0.2-0.6,0.6-1.2,1-1.6
	c0.4-0.4,1-0.7,1.5-0.9c0.6-0.2,1.3-0.3,1.9-0.3c0.4,0,0.9,0.1,1.3,0.2c0.4,0.1,0.8,0.2,1.1,0.4v-4.3l0.3-0.1c0.2,0,0.3,0,0.5-0.1
	c0.6,0,0.9,0.2,0.9,0.8L208.4,170.9z M206.7,164.5c-0.3-0.2-0.6-0.4-1-0.5c-0.4-0.1-0.8-0.2-1.3-0.2c-0.4,0-0.8,0.1-1.2,0.2
	c-0.4,0.1-0.7,0.4-1,0.7c-0.3,0.3-0.6,0.8-0.7,1.2c-0.2,0.6-0.3,1.2-0.3,1.8c-0.1,1,0.2,2.1,0.9,2.9c0.7,0.6,1.6,0.9,2.5,0.9
	c0.4,0,0.8,0,1.2-0.2c0.3-0.1,0.6-0.2,0.9-0.4L206.7,164.5z"/>
<path class="st1" d="M220.8,167.6c0,0.7-0.1,1.5-0.4,2.2c-0.2,0.6-0.6,1.2-1,1.6c-0.4,0.4-1,0.8-1.5,1c-1.3,0.5-2.7,0.5-4,0
	c-0.6-0.2-1.1-0.6-1.5-1c-0.4-0.5-0.8-1-1-1.6c-0.2-0.7-0.4-1.4-0.4-2.2c0-0.7,0.1-1.5,0.4-2.2c0.2-0.6,0.6-1.2,1-1.6
	c0.4-0.4,1-0.8,1.5-1c1.3-0.5,2.7-0.5,4,0c0.6,0.2,1.1,0.6,1.5,1c0.4,0.5,0.8,1,1,1.6C220.7,166.1,220.9,166.8,220.8,167.6z
	 M216,163.8c-0.9,0-1.7,0.3-2.3,1c-0.6,0.8-0.9,1.8-0.8,2.8c-0.1,1,0.2,2,0.8,2.8c0.6,0.7,1.4,1,2.3,1c0.9,0,1.7-0.3,2.3-1
	c0.6-0.8,0.9-1.8,0.8-2.8c0.1-1-0.2-2-0.8-2.8C217.7,164.1,216.9,163.7,216,163.8z"/>
<path class="st1" d="M225.2,172.4c-0.1,0-0.2,0.1-0.3,0.1c-0.2,0-0.3,0.1-0.5,0.1c-0.6,0-0.9-0.3-0.9-0.8v-7.3
	c0-0.3,0.1-0.5,0.2-0.8c0.2-0.2,0.4-0.4,0.6-0.6c0.5-0.3,1-0.5,1.5-0.6c0.7-0.2,1.4-0.3,2.1-0.3c1.1,0,1.7,0.3,1.7,0.9
	c0,0.1,0,0.3-0.1,0.4c0,0.1-0.1,0.2-0.2,0.3l-0.6-0.1c-0.2,0-0.5,0-0.7,0c-0.6,0-1.2,0.1-1.7,0.2c-0.4,0.1-0.8,0.3-1.2,0.5
	L225.2,172.4z"/>
<path class="st1" d="M242.5,171.4c-0.3,0.2-0.6,0.4-1,0.5c-0.5,0.1-1,0.2-1.5,0.2c-0.6,0-1.2-0.1-1.8-0.3c-0.5-0.2-1-0.5-1.5-0.9
	c-0.4-0.4-0.8-1-1-1.5c-0.3-0.7-0.4-1.5-0.4-2.3c0-0.7,0.1-1.5,0.4-2.1c0.4-1.2,1.4-2.1,2.6-2.5c0.6-0.2,1.3-0.3,2-0.3
	c0.6,0,1.2,0.1,1.8,0.2c0.5,0.1,0.9,0.3,1.4,0.6c0.2,0.1,0.4,0.3,0.5,0.5c0.1,0.2,0.2,0.4,0.2,0.6v8.6c0,0.6-0.1,1.2-0.4,1.8
	c-0.2,0.5-0.6,0.9-1,1.2c-0.4,0.3-0.9,0.5-1.5,0.7c-0.6,0.1-1.2,0.2-1.8,0.2c-0.6,0-1.2-0.1-1.9-0.2c-0.3-0.1-0.7-0.2-1-0.4
	c-0.4-0.2-0.6-0.5-0.6-0.9c0-0.2,0-0.4,0.1-0.5c0.1-0.1,0.2-0.2,0.4-0.3c0.4,0.3,0.8,0.5,1.3,0.6c0.6,0.2,1.2,0.3,1.8,0.3
	c0.8,0,1.5-0.2,2.2-0.6c0.6-0.5,0.8-1.3,0.8-2L242.5,171.4z M240.2,170.8c0.5,0,1-0.1,1.4-0.3c0.3-0.2,0.6-0.4,0.9-0.6v-5.6
	c-0.3-0.2-0.6-0.3-0.9-0.4c-0.4-0.1-0.9-0.2-1.3-0.2c-0.9,0-1.7,0.3-2.3,0.9c-0.6,0.7-0.9,1.7-0.9,2.6c0,0.6,0.1,1.1,0.2,1.6
	c0.1,0.4,0.4,0.8,0.7,1.1c0.3,0.3,0.6,0.5,1,0.6C239.4,170.7,239.8,170.8,240.2,170.8L240.2,170.8z"/>
<path class="st1" d="M249.1,172.4c-0.1,0-0.2,0.1-0.3,0.1c-0.2,0-0.3,0.1-0.5,0.1c-0.6,0-0.9-0.3-0.9-0.8v-7.3
	c0-0.3,0.1-0.5,0.2-0.8c0.2-0.2,0.4-0.4,0.6-0.6c0.5-0.3,1-0.5,1.5-0.6c0.7-0.2,1.4-0.3,2.1-0.3c1.1,0,1.7,0.3,1.7,0.9
	c0,0.1,0,0.3-0.1,0.4c0,0.1-0.1,0.2-0.2,0.3l-0.6-0.1c-0.2,0-0.5,0-0.7,0c-0.6,0-1.2,0.1-1.7,0.2c-0.4,0.1-0.8,0.3-1.2,0.5
	L249.1,172.4z"/>
<path class="st1" d="M259,162.4c1-0.1,2.1,0.2,3,0.8c0.8,0.6,1.2,1.6,1.1,2.6v5.1c0,0.3,0,0.5-0.2,0.7c-0.1,0.2-0.3,0.3-0.5,0.5
	c-0.4,0.2-0.9,0.4-1.4,0.5c-0.6,0.2-1.3,0.2-1.9,0.2c-1.1,0.1-2.2-0.2-3.1-0.8c-0.7-0.5-1.2-1.4-1.1-2.3c-0.1-0.8,0.3-1.6,0.9-2.1
	c0.8-0.5,1.7-0.8,2.6-0.9l3-0.3v-0.6c0.1-0.6-0.2-1.2-0.6-1.6c-0.5-0.4-1.1-0.5-1.7-0.5c-0.6,0-1.1,0.1-1.7,0.3
	c-0.5,0.2-1,0.3-1.4,0.6c-0.1-0.1-0.2-0.2-0.3-0.3c-0.1-0.1-0.1-0.3-0.1-0.4c0-0.2,0-0.3,0.1-0.5c0.1-0.2,0.3-0.3,0.5-0.4
	c0.4-0.2,0.9-0.4,1.3-0.5C257.9,162.4,258.4,162.3,259,162.4z M259,171.4c0.5,0,1,0,1.5-0.2c0.3-0.1,0.6-0.2,0.8-0.4v-3.1l-2.6,0.3
	c-0.6,0-1.2,0.2-1.6,0.5c-0.4,0.3-0.6,0.7-0.5,1.2c0,0.5,0.2,1,0.6,1.2C257.7,171.3,258.3,171.5,259,171.4L259,171.4z M260.6,157.8
	c0.3,0,0.5,0.1,0.8,0.3c0.2,0.1,0.3,0.3,0.3,0.6c0,0.2,0,0.3-0.1,0.5c-0.1,0.2-0.3,0.3-0.4,0.5l-2,1.9c-0.2,0-0.5-0.1-0.7-0.2
	c-0.2-0.1-0.3-0.3-0.3-0.5c0-0.1,0-0.2,0.1-0.3l0.2-0.3L260.6,157.8z"/>
<path class="st1" d="M267.9,163.2h4.2c0.1,0.1,0.1,0.2,0.1,0.3c0.1,0.1,0.1,0.3,0.1,0.4c0,0.5-0.2,0.7-0.7,0.7h-3.7v7.9
	c-0.1,0-0.2,0.1-0.3,0.1c-0.2,0-0.3,0.1-0.5,0.1c-0.6,0-0.9-0.3-0.9-0.8v-10.1c-0.1-1,0.3-2,1-2.7c0.8-0.6,1.8-0.9,2.8-0.8
	c0.7,0,1.3,0.1,1.9,0.3c0.5,0.2,0.7,0.5,0.7,0.8c0,0.3-0.1,0.6-0.4,0.8c-0.3-0.2-0.7-0.3-1-0.4c-0.4-0.1-0.7-0.1-1.1-0.1
	c-0.7-0.1-1.3,0.1-1.8,0.5c-0.4,0.5-0.6,1.1-0.5,1.7L267.9,163.2z M274.5,159.5c0-0.3,0.1-0.6,0.3-0.8c0.2-0.2,0.5-0.3,0.8-0.3
	c0.3,0,0.6,0.1,0.8,0.3c0.2,0.2,0.3,0.5,0.3,0.8c0,0.3-0.1,0.6-0.3,0.8c-0.2,0.2-0.5,0.3-0.8,0.3c-0.3,0-0.6-0.1-0.8-0.3
	C274.6,160.1,274.5,159.8,274.5,159.5L274.5,159.5z M276.5,172.5c-0.1,0-0.2,0.1-0.3,0.1c-0.2,0-0.3,0.1-0.5,0.1
	c-0.6,0-0.9-0.3-0.9-0.8v-9.2l0.3-0.1c0.2,0,0.3,0,0.5,0c0.6,0,0.9,0.3,0.9,0.8L276.5,172.5z"/>
<path class="st1" d="M284.4,163.8c-0.5,0-0.9,0.1-1.3,0.2c-0.4,0.2-0.8,0.4-1.1,0.7c-0.3,0.3-0.6,0.7-0.7,1.2
	c-0.2,0.5-0.3,1.1-0.2,1.6c-0.1,1,0.3,2.1,0.9,2.9c0.6,0.7,1.5,1,2.5,1c0.5,0,1-0.1,1.5-0.2c0.4-0.1,0.7-0.3,1.1-0.6
	c0.2,0.1,0.3,0.2,0.4,0.3c0.1,0.1,0.2,0.3,0.1,0.5c0,0.2-0.1,0.4-0.2,0.6c-0.2,0.2-0.4,0.3-0.6,0.4c-0.3,0.1-0.7,0.2-1,0.3
	c-0.4,0.1-0.8,0.1-1.2,0.1c-0.7,0-1.4-0.1-2-0.3c-0.6-0.2-1.2-0.6-1.6-1c-0.5-0.4-0.8-1-1.1-1.6c-0.3-0.7-0.4-1.5-0.4-2.3
	c0-0.8,0.1-1.6,0.4-2.3c0.2-0.6,0.6-1.2,1.1-1.6c0.5-0.4,1-0.8,1.6-1c0.6-0.2,1.3-0.3,2-0.3c0.4,0,0.8,0,1.2,0.1
	c0.3,0.1,0.7,0.2,1,0.3c0.2,0.1,0.5,0.3,0.6,0.5c0.1,0.1,0.2,0.3,0.2,0.5c0,0.2,0,0.3-0.1,0.4c-0.1,0.1-0.2,0.2-0.4,0.3
	c-0.3-0.2-0.6-0.4-1-0.6C285.5,163.8,284.9,163.8,284.4,163.8z"/>
<path class="st1" d="M299,167.6c0,0.7-0.1,1.5-0.3,2.2c-0.2,0.6-0.6,1.2-1,1.6c-0.4,0.4-1,0.8-1.5,1c-1.3,0.5-2.7,0.5-4,0
	c-0.6-0.2-1.1-0.6-1.5-1c-0.4-0.5-0.8-1-1-1.6c-0.5-1.4-0.5-2.9,0-4.3c0.2-0.6,0.6-1.2,1-1.6c0.4-0.4,1-0.8,1.5-1
	c1.3-0.5,2.7-0.5,4,0c0.6,0.2,1.1,0.6,1.5,1c0.4,0.5,0.8,1,1,1.6C298.9,166.1,299,166.8,299,167.6z M294.1,163.8
	c-0.9,0-1.7,0.3-2.3,1c-0.6,0.8-0.9,1.8-0.8,2.8c-0.1,1,0.2,2,0.8,2.8c0.6,0.7,1.4,1,2.3,1c0.9,0,1.7-0.3,2.3-1
	c1.1-1.7,1.1-3.9,0-5.6C295.9,164.1,295,163.7,294.1,163.8L294.1,163.8z"/>
<path class="st1" d="M312.2,170.3c-0.2-0.4-0.4-0.8-0.6-1.3s-0.5-1.1-0.8-1.8s-0.5-1.4-0.8-2.1s-0.5-1.5-0.8-2.2
	c0.1-0.1,0.2-0.3,0.4-0.3c0.2-0.1,0.3-0.1,0.5-0.1c0.2,0,0.4,0.1,0.6,0.2c0.2,0.2,0.3,0.4,0.4,0.6c0.4,1.2,0.9,2.4,1.3,3.6
	s1,2.4,1.6,3.7h0.1c0.3-0.5,0.5-1.1,0.7-1.6c0.2-0.6,0.5-1.3,0.7-2s0.5-1.4,0.7-2.2s0.4-1.4,0.5-2.1c0.1-0.1,0.2-0.1,0.3-0.1
	c0.1,0,0.3-0.1,0.4-0.1c0.2,0,0.4,0.1,0.6,0.2c0.2,0.1,0.2,0.3,0.2,0.5c0,0.5-0.1,1.1-0.3,1.6c-0.2,0.8-0.5,1.6-0.8,2.6
	s-0.7,1.9-1.1,2.9c-0.4,0.9-0.8,1.8-1.3,2.6c-0.5,1-1.1,1.9-1.8,2.8c-0.3,0.5-0.9,0.9-1.5,1c-0.3,0-0.5-0.1-0.8-0.2
	c-0.2-0.2-0.3-0.4-0.3-0.6c0.3-0.2,0.5-0.5,0.8-0.8c0.3-0.3,0.6-0.6,0.9-1s0.6-0.7,0.8-1.1c0.2-0.4,0.5-0.7,0.6-1.1
	c-0.2-0.1-0.5-0.2-0.7-0.4C312.6,171.1,312.4,170.7,312.2,170.3z"/>
<path class="st1" d="M327,167.9v4.6l-0.4,0.1c-0.2,0-0.3,0.1-0.5,0.1c-0.6,0-0.9-0.3-0.9-0.8v-11.3c0-0.2,0.1-0.4,0.2-0.5
	c0.2-0.1,0.3-0.2,0.5-0.3c0.5-0.1,1-0.2,1.5-0.3c0.6,0,1.2-0.1,1.7-0.1c1.4-0.1,2.9,0.3,4,1.1c0.8,0.8,1.3,1.9,1.2,3.1
	c0.1,1.2-0.4,2.4-1.3,3.2c-1.1,0.9-2.5,1.3-4,1.2H327z M329,166.4c0.9,0.1,1.9-0.2,2.6-0.7c0.7-0.5,1-1.3,0.9-2.2
	c0.1-0.8-0.3-1.6-0.9-2.1c-0.8-0.5-1.7-0.7-2.6-0.7c-0.4,0-0.8,0-1.1,0.1c-0.4,0-0.7,0.1-1,0.1v5.5L329,166.4z"/>
<path class="st1" d="M338.4,172.4c-0.1,0-0.2,0.1-0.3,0.1c-0.2,0-0.3,0.1-0.5,0.1c-0.6,0-0.9-0.3-0.9-0.8v-7.3
	c0-0.3,0.1-0.5,0.2-0.8c0.2-0.2,0.4-0.4,0.6-0.6c0.5-0.3,1-0.5,1.5-0.6c0.7-0.2,1.4-0.3,2.1-0.3c1.1,0,1.7,0.3,1.7,0.9
	c0,0.1,0,0.3-0.1,0.4c0,0.1-0.1,0.2-0.2,0.3l-0.6-0.1c-0.2,0-0.5,0-0.7,0c-0.6,0-1.2,0.1-1.7,0.2c-0.4,0.1-0.9,0.3-1.2,0.5
	L338.4,172.4z"/>
<path class="st1" d="M353.8,167.6c0,0.7-0.1,1.5-0.3,2.2c-0.2,0.6-0.6,1.2-1,1.6c-0.4,0.4-1,0.8-1.5,1c-1.3,0.5-2.7,0.5-4,0
	c-0.6-0.2-1.1-0.6-1.5-1c-0.4-0.5-0.8-1-1-1.6c-0.2-0.7-0.4-1.4-0.4-2.2c0-0.7,0.1-1.5,0.4-2.2c0.2-0.6,0.6-1.2,1-1.6
	c0.4-0.4,1-0.8,1.5-1c1.3-0.5,2.7-0.5,4,0c0.6,0.2,1.1,0.6,1.5,1c0.4,0.5,0.8,1,1,1.6C353.7,166.1,353.8,166.8,353.8,167.6z
	 M348.9,163.8c-0.9,0-1.7,0.3-2.3,1c-1.1,1.7-1.1,3.9,0,5.6c0.6,0.7,1.4,1,2.3,1c0.9,0,1.7-0.3,2.3-1c0.6-0.8,0.9-1.8,0.8-2.8
	c0.1-1-0.2-2-0.8-2.8C350.7,164.1,349.8,163.7,348.9,163.8z"/>
<path class="st1" d="M364.9,170.9c0,0.2,0,0.5-0.2,0.7c-0.2,0.2-0.4,0.3-0.6,0.5c-0.4,0.2-0.8,0.4-1.2,0.5c-0.6,0.2-1.2,0.3-1.8,0.2
	c-0.7,0-1.4-0.1-2.1-0.3c-0.6-0.2-1.2-0.5-1.7-0.9c-0.5-0.4-0.8-1-1.1-1.6c-0.5-1.5-0.5-3.2,0-4.7c0.2-0.6,0.6-1.2,1-1.6
	c0.4-0.4,1-0.8,1.5-0.9c0.6-0.2,1.2-0.3,1.9-0.3c0.4,0,0.9,0.1,1.3,0.2c0.4,0.1,0.8,0.2,1.1,0.4v-4.3l0.3-0.1c0.2,0,0.3,0,0.5-0.1
	c0.6,0,0.9,0.2,0.9,0.8L364.9,170.9z M363.2,164.5c-0.3-0.2-0.6-0.4-1-0.5c-0.4-0.1-0.9-0.2-1.3-0.2c-0.4,0-0.8,0.1-1.2,0.2
	c-0.4,0.1-0.7,0.4-1,0.7c-0.3,0.3-0.6,0.8-0.7,1.2c-0.2,0.6-0.3,1.2-0.3,1.8c-0.1,1,0.2,2.1,0.9,2.9c0.7,0.6,1.6,0.9,2.5,0.9
	c0.4,0,0.8,0,1.2-0.2c0.3-0.1,0.6-0.2,0.9-0.4L363.2,164.5z"/>
<path class="st1" d="M368.1,162.7l0.3-0.1c0.2,0,0.3,0,0.5,0c0.6,0,0.9,0.3,0.9,0.8v5.5c-0.1,0.7,0.2,1.5,0.7,2
	c0.6,0.4,1.3,0.6,2,0.6c0.5,0,1-0.1,1.5-0.2c0.3-0.1,0.6-0.2,0.9-0.4v-8.1l0.3-0.1c0.2,0,0.3,0,0.5,0c0.6,0,0.9,0.3,0.9,0.8v7.4
	c0,0.2,0,0.5-0.1,0.7c-0.1,0.2-0.3,0.4-0.6,0.5c-0.4,0.2-0.9,0.4-1.4,0.5c-0.7,0.2-1.4,0.3-2.1,0.3c-1.2,0.1-2.3-0.3-3.3-0.9
	c-0.8-0.8-1.3-1.9-1.1-3L368.1,162.7z"/>
<path class="st1" d="M384.5,163.8c-0.5,0-0.9,0.1-1.4,0.2c-0.4,0.2-0.8,0.4-1.1,0.7c-0.3,0.3-0.6,0.7-0.7,1.2
	c-0.2,0.5-0.3,1.1-0.2,1.6c-0.1,1,0.2,2.1,0.9,2.9c0.6,0.7,1.5,1,2.5,1c0.5,0,1-0.1,1.5-0.2c0.4-0.1,0.7-0.3,1.1-0.6
	c0.2,0.1,0.3,0.2,0.4,0.3c0.1,0.1,0.2,0.3,0.1,0.5c0,0.2-0.1,0.4-0.2,0.6c-0.2,0.2-0.4,0.3-0.6,0.4c-0.3,0.1-0.7,0.2-1,0.3
	c-0.4,0.1-0.8,0.1-1.2,0.1c-0.7,0-1.4-0.1-2.1-0.3c-0.6-0.2-1.2-0.6-1.6-1c-0.5-0.4-0.8-1-1.1-1.6c-0.3-0.7-0.4-1.5-0.4-2.3
	c0-0.8,0.1-1.6,0.4-2.3c0.2-0.6,0.6-1.2,1.1-1.6c0.5-0.4,1-0.8,1.6-1c1-0.4,2.1-0.4,3.2-0.2c0.3,0.1,0.7,0.2,1,0.3
	c0.2,0.1,0.5,0.3,0.6,0.5c0.1,0.1,0.2,0.3,0.2,0.5c0,0.2,0,0.3-0.1,0.4c-0.1,0.1-0.2,0.2-0.4,0.3c-0.3-0.2-0.6-0.4-1-0.6
	C385.5,163.9,385,163.8,384.5,163.8z"/>
<path class="st1" d="M393.5,172.8c-0.9,0-1.7-0.2-2.4-0.7c-0.7-0.5-1-1.4-0.9-2.2v-10.2l0.3-0.1c0.2,0,0.3,0,0.5-0.1
	c0.6,0,0.9,0.3,0.9,0.8v2.5h3.5c0.1,0.1,0.1,0.2,0.1,0.3c0,0.1,0.1,0.3,0.1,0.4c0,0.5-0.2,0.7-0.6,0.7h-3v5.6
	c-0.1,0.5,0.1,0.9,0.5,1.2c0.4,0.3,0.9,0.4,1.4,0.4c0.3,0,0.5-0.1,0.8-0.1c0.3-0.1,0.5-0.2,0.8-0.3c0.1,0.1,0.2,0.2,0.2,0.3
	c0.1,0.1,0.1,0.3,0.1,0.4c0,0.3-0.2,0.6-0.6,0.8C394.6,172.7,394,172.8,393.5,172.8z"/>
<path class="st1" d="M407,167.6c0,0.7-0.1,1.5-0.3,2.2c-0.2,0.6-0.6,1.2-1,1.6c-0.4,0.4-1,0.8-1.5,1c-1.3,0.5-2.7,0.5-4,0
	c-0.6-0.2-1.1-0.6-1.5-1c-0.4-0.5-0.8-1-1-1.6c-0.2-0.7-0.4-1.4-0.4-2.2c0-0.7,0.1-1.5,0.4-2.2c0.2-0.6,0.6-1.2,1-1.6
	c0.4-0.4,1-0.8,1.5-1c1.3-0.5,2.7-0.5,4,0c0.6,0.2,1.1,0.6,1.5,1c0.4,0.5,0.8,1,1,1.6C406.9,166.1,407,166.8,407,167.6z
	 M402.1,163.8c-0.9,0-1.7,0.3-2.3,1c-1.1,1.7-1.1,3.9,0,5.6c0.6,0.7,1.4,1,2.3,1c0.9,0,1.7-0.3,2.3-1c0.6-0.8,0.9-1.8,0.8-2.8
	c0.1-1-0.2-2-0.8-2.8C403.8,164.1,403,163.7,402.1,163.8L402.1,163.8z"/>
<path class="st1" d="M411.3,172.4c-0.1,0-0.2,0.1-0.3,0.1c-0.2,0-0.3,0.1-0.5,0.1c-0.6,0-0.9-0.3-0.9-0.8v-7.3
	c0-0.3,0.1-0.5,0.2-0.8c0.2-0.2,0.4-0.4,0.6-0.6c0.5-0.3,1-0.5,1.5-0.6c0.7-0.2,1.4-0.3,2.1-0.3c1.1,0,1.7,0.3,1.7,0.9
	c0,0.1,0,0.3-0.1,0.4c0,0.1-0.1,0.2-0.2,0.3l-0.6-0.1c-0.2,0-0.5,0-0.7,0c-0.6,0-1.2,0.1-1.7,0.2c-0.4,0.1-0.8,0.3-1.2,0.5
	L411.3,172.4z"/>
<path class="st1" d="M429.7,169.1c-0.1,0.1-0.3,0.1-0.4,0.2c-0.2,0.1-0.4,0.1-0.5,0.1c-0.2,0-0.4,0-0.6-0.1
	c-0.2-0.1-0.3-0.2-0.4-0.3c-0.8-1.6-1.4-3.1-2-4.4s-1-2.4-1.4-3.3h-0.1c0,1.1-0.1,2.1-0.1,3s-0.1,1.8-0.2,2.7s-0.1,1.8-0.2,2.7
	s-0.1,1.9-0.2,2.9l-0.3,0.1c-0.1,0-0.3,0-0.4,0c-0.2,0-0.5-0.1-0.7-0.2c-0.1-0.2-0.2-0.4-0.2-0.6c0-0.1,0-0.4,0-0.9s0-1,0.1-1.7
	s0.1-1.4,0.1-2.2s0.1-1.6,0.2-2.5s0.1-1.7,0.2-2.5s0.1-1.6,0.2-2.2c0.1-0.1,0.3-0.2,0.5-0.3c0.2-0.1,0.5-0.1,0.7-0.1
	c0.6,0,1.1,0.3,1.4,0.8c0.3,0.6,0.5,1.1,0.8,1.8l0.8,1.9l0.8,1.9c0.3,0.6,0.5,1.2,0.8,1.8h0.1c0.3-0.8,0.6-1.5,1-2.2
	s0.6-1.4,0.9-2.1s0.6-1.3,0.9-1.9s0.5-1.1,0.7-1.6c0.2-0.1,0.3-0.1,0.5-0.2c0.2,0,0.4,0,0.6-0.1c0.7,0,1,0.2,1.1,0.7
	c0.1,0.3,0.1,0.7,0.2,1.3s0.1,1.3,0.2,2s0.1,1.6,0.2,2.5s0.1,1.7,0.2,2.6s0.1,1.6,0.1,2.3s0.1,1.2,0.1,1.6c-0.3,0.2-0.6,0.3-0.9,0.3
	c-0.2,0-0.4-0.1-0.6-0.2c-0.2-0.1-0.3-0.4-0.3-0.6c-0.1-1-0.1-2.1-0.2-3.1s-0.1-2-0.2-2.9s-0.1-1.8-0.1-2.6s-0.1-1.4-0.1-2h-0.1
	c-0.2,0.4-0.3,0.9-0.5,1.4s-0.4,1.1-0.7,1.7s-0.6,1.3-0.9,2.1S430.2,168.2,429.7,169.1z"/>
<path class="st1" d="M438.7,162.7l0.3-0.1c0.2,0,0.3,0,0.5,0c0.6,0,0.9,0.3,0.9,0.8v5.5c-0.1,0.7,0.2,1.5,0.7,2
	c0.6,0.4,1.3,0.6,2,0.6c0.5,0,1-0.1,1.5-0.2c0.3-0.1,0.6-0.2,0.9-0.4v-8.1l0.3-0.1c0.2,0,0.3,0,0.5,0c0.6,0,0.9,0.3,0.9,0.8v7.4
	c0,0.2,0,0.5-0.1,0.7c-0.1,0.2-0.3,0.4-0.6,0.5c-0.4,0.2-0.9,0.4-1.4,0.5c-0.7,0.2-1.4,0.3-2.1,0.3c-1.2,0.1-2.3-0.3-3.3-0.9
	c-0.8-0.8-1.3-1.9-1.1-3L438.7,162.7z"/>
<path class="st1" d="M452,172.6c-0.2,0-0.3,0.1-0.5,0.1c-0.6,0-0.9-0.3-0.9-0.8v-13.2l0.3-0.1c0.2,0,0.3,0,0.5-0.1
	c0.6,0,0.9,0.2,0.9,0.8v13.2C452.2,172.5,452.1,172.5,452,172.6z"/>
<path class="st1" d="M459.1,172.8c-0.9,0-1.7-0.2-2.4-0.7c-0.7-0.5-1-1.4-0.9-2.2v-10.2l0.3-0.1c0.2,0,0.3,0,0.5-0.1
	c0.6,0,0.9,0.3,0.9,0.8v2.5h3.6c0.1,0.1,0.1,0.2,0.1,0.3c0,0.1,0.1,0.3,0.1,0.4c0,0.5-0.2,0.7-0.6,0.7h-3.1v5.6
	c-0.1,0.5,0.1,0.9,0.5,1.2c0.4,0.3,0.9,0.4,1.4,0.4c0.3,0,0.6-0.1,0.8-0.1c0.3-0.1,0.5-0.2,0.7-0.3c0.1,0.1,0.2,0.2,0.2,0.3
	c0.1,0.1,0.1,0.3,0.1,0.4c0,0.3-0.2,0.6-0.6,0.8C460.2,172.7,459.6,172.8,459.1,172.8z"/>
<path class="st1" d="M463.5,159.5c0-0.3,0.1-0.6,0.3-0.8c0.2-0.2,0.5-0.3,0.8-0.3c0.3,0,0.6,0.1,0.8,0.3c0.2,0.2,0.3,0.5,0.3,0.8
	c0,0.6-0.4,1-0.9,1.1c-0.1,0-0.1,0-0.2,0c-0.3,0-0.6-0.1-0.8-0.3C463.6,160.1,463.5,159.8,463.5,159.5z M465.5,172.5
	c-0.1,0-0.2,0.1-0.3,0.1c-0.2,0-0.3,0.1-0.5,0.1c-0.6,0-0.9-0.3-0.9-0.8v-9.2l0.3-0.1c0.2,0,0.3,0,0.5,0c0.6,0,0.9,0.3,0.9,0.8
	L465.5,172.5z"/>
<path class="st1" d="M480.7,164.3c-0.5-0.3-1-0.5-1.6-0.5c-0.9,0-1.8,0.4-2.5,1c0.1,0.3,0.1,0.6,0.1,0.9v6.8c-0.1,0-0.2,0.1-0.3,0.1
	c-0.2,0-0.3,0.1-0.5,0.1c-0.6,0-0.9-0.3-0.9-0.8v-6.1c0-0.6-0.2-1.1-0.6-1.5c-0.5-0.3-1-0.5-1.6-0.5c-0.4,0-0.9,0.1-1.3,0.2
	c-0.4,0.1-0.7,0.3-1,0.5v8c-0.1,0-0.2,0.1-0.3,0.1c-0.2,0-0.3,0.1-0.5,0.1c-0.6,0-0.9-0.3-0.9-0.8v-7.3c0-0.2,0.1-0.5,0.2-0.7
	c0.2-0.2,0.4-0.4,0.6-0.6c0.5-0.3,0.9-0.5,1.5-0.6c0.6-0.2,1.2-0.3,1.8-0.3c0.6,0,1.3,0.1,1.9,0.3c0.5,0.2,0.9,0.5,1.2,0.8
	c0.4-0.4,0.9-0.6,1.4-0.8c0.6-0.2,1.3-0.3,1.9-0.3c1-0.1,2,0.2,2.8,0.8c0.7,0.6,1.1,1.6,1,2.5v6.8c-0.3,0.1-0.5,0.1-0.8,0.1
	c-0.6,0-0.9-0.3-0.9-0.8v-6.1C481.4,165.2,481.2,164.6,480.7,164.3z"/>
<path class="st1" d="M487.5,168.6c0.4,1.9,1.6,2.8,3.7,2.8c0.6,0,1.1-0.1,1.6-0.3c0.4-0.2,0.8-0.4,1.2-0.6c0.3,0.2,0.5,0.5,0.5,0.8
	c0,0.2-0.1,0.4-0.3,0.6c-0.2,0.2-0.5,0.4-0.7,0.5c-0.3,0.1-0.7,0.3-1.1,0.3c-0.4,0.1-0.9,0.1-1.3,0.1c-1.4,0.1-2.8-0.4-3.9-1.4
	c-1-1-1.6-2.5-1.5-3.9c0-0.7,0.1-1.5,0.4-2.2c0.2-0.6,0.6-1.1,1-1.6c0.4-0.4,0.9-0.8,1.5-1c0.6-0.2,1.3-0.4,1.9-0.4
	c0.6,0,1.2,0.1,1.8,0.3c0.5,0.2,1,0.5,1.4,0.9c0.4,0.4,0.7,0.9,0.9,1.4c0.2,0.6,0.3,1.2,0.3,1.8c0,0.2-0.1,0.5-0.2,0.7
	c-0.2,0.1-0.4,0.2-0.6,0.2L487.5,168.6z M490.4,163.7c-0.8,0-1.6,0.3-2.2,0.9c-0.6,0.7-0.9,1.7-0.9,2.6l5.9-0.8
	c0-0.7-0.3-1.4-0.8-1.9C491.9,164,491.2,163.7,490.4,163.7z"/>
<path class="st1" d="M505.8,170.9c0,0.2,0,0.5-0.2,0.7c-0.2,0.2-0.4,0.3-0.6,0.5c-0.4,0.2-0.8,0.4-1.2,0.5c-0.6,0.2-1.2,0.3-1.8,0.2
	c-0.7,0-1.4-0.1-2.1-0.3c-0.6-0.2-1.2-0.5-1.7-0.9c-0.5-0.4-0.8-1-1.1-1.6c-0.5-1.5-0.5-3.2,0-4.7c0.2-0.6,0.6-1.2,1-1.6
	c0.4-0.4,1-0.8,1.5-0.9c0.6-0.2,1.2-0.3,1.9-0.3c0.4,0,0.9,0.1,1.3,0.2c0.4,0.1,0.8,0.2,1.1,0.4v-4.3l0.3-0.1c0.2,0,0.3,0,0.5-0.1
	c0.6,0,0.9,0.2,0.9,0.8L505.8,170.9z M504.1,164.5c-0.3-0.2-0.6-0.4-1-0.5c-0.4-0.1-0.9-0.2-1.3-0.2c-0.4,0-0.8,0.1-1.2,0.2
	c-0.4,0.1-0.7,0.4-1,0.7c-0.3,0.3-0.6,0.8-0.7,1.2c-0.2,0.6-0.3,1.2-0.3,1.8c-0.1,1,0.2,2.1,0.9,2.9c0.7,0.6,1.6,0.9,2.5,0.9
	c0.4,0,0.8,0,1.2-0.2c0.3-0.1,0.6-0.2,0.9-0.4L504.1,164.5z"/>
<path class="st1" d="M508.9,159.5c0-0.3,0.1-0.6,0.3-0.8c0.2-0.2,0.5-0.3,0.8-0.3c0.3,0,0.6,0.1,0.8,0.3c0.2,0.2,0.3,0.5,0.3,0.8
	c0,0.3-0.1,0.6-0.3,0.8c-0.2,0.2-0.5,0.3-0.8,0.3c-0.3,0-0.6-0.1-0.8-0.3C509,160.1,508.9,159.8,508.9,159.5z M510.9,172.5
	c-0.1,0-0.2,0.1-0.3,0.1c-0.2,0-0.3,0.1-0.5,0.1c-0.6,0-0.9-0.3-0.9-0.8v-9.2l0.3-0.1c0.2,0,0.3,0,0.5,0c0.6,0,0.9,0.3,0.9,0.8
	L510.9,172.5z"/>
<path class="st1" d="M517.7,162.4c1.1-0.1,2.1,0.2,3,0.8c0.8,0.7,1.2,1.6,1.1,2.6v5.1c0,0.3,0,0.5-0.2,0.7c-0.2,0.2-0.3,0.3-0.5,0.5
	c-0.4,0.2-0.9,0.4-1.4,0.5c-0.6,0.2-1.3,0.2-1.9,0.2c-1.1,0.1-2.2-0.2-3.1-0.8c-0.7-0.5-1.1-1.4-1.1-2.3c-0.1-0.8,0.3-1.6,0.9-2.1
	c0.8-0.5,1.7-0.8,2.6-0.9l3-0.3v-0.6c0.1-0.6-0.2-1.2-0.6-1.6c-0.5-0.4-1.1-0.5-1.7-0.5c-0.6,0-1.1,0.1-1.7,0.3
	c-0.5,0.2-1,0.3-1.4,0.6c-0.1-0.1-0.2-0.2-0.3-0.3c-0.1-0.1-0.1-0.3-0.1-0.4c0-0.2,0-0.3,0.2-0.5c0.1-0.2,0.3-0.3,0.5-0.4
	c0.4-0.2,0.9-0.4,1.3-0.5C516.6,162.4,517.2,162.3,517.7,162.4z M517.7,171.4c0.5,0,1,0,1.5-0.2c0.3-0.1,0.6-0.2,0.8-0.4v-3.1
	l-2.7,0.3c-0.6,0-1.2,0.2-1.7,0.5c-0.4,0.3-0.6,0.7-0.5,1.2c0,0.5,0.2,1,0.6,1.2C516.4,171.3,517.1,171.5,517.7,171.4L517.7,171.4z"
	/>
</svg>
